<svg id="Calque_1" data-name="Calque 1" xmlns="http://www.w3.org/2000/svg" xmlns:xlink="http://www.w3.org/1999/xlink" viewBox="0 0 648 869.36"><defs><style>.cls-1{opacity:0.5;}.cls-2{fill:url(#Dégradé_sans_nom_130);}.cls-3{fill:url(#Dégradé_sans_nom_130-2);}.cls-4{fill:url(#Dégradé_sans_nom_130-3);}.cls-5{fill:url(#Dégradé_sans_nom_130-4);}</style><linearGradient id="Dégradé_sans_nom_130" x1="65.62" y1="459.48" x2="509.3" y2="459.48" gradientUnits="userSpaceOnUse"><stop offset="0" stop-color="#fff"/><stop offset="0.13" stop-color="#fbfbfb"/><stop offset="0.26" stop-color="#f0f0f0"/><stop offset="0.38" stop-color="#dcdcdc"/><stop offset="0.51" stop-color="#c1c1c1"/><stop offset="0.63" stop-color="#9e9e9e"/><stop offset="0.75" stop-color="#737373"/><stop offset="0.87" stop-color="#404040"/><stop offset="0.99" stop-color="#070707"/><stop offset="1"/></linearGradient><linearGradient id="Dégradé_sans_nom_130-2" x1="285.65" y1="296.36" x2="406.84" y2="296.36" xlink:href="#Dégradé_sans_nom_130"/><linearGradient id="Dégradé_sans_nom_130-3" x1="320.14" y1="331.26" x2="320.14" y2="331.26" xlink:href="#Dégradé_sans_nom_130"/><linearGradient id="Dégradé_sans_nom_130-4" x1="320.9" y1="333.3" x2="320.9" y2="333.3" xlink:href="#Dégradé_sans_nom_130"/></defs><rect width="648" height="869.36"/><g class="cls-1"><path class="cls-2" d="M65.62,422.25l29.72,24,30.3,30.64,36.42,40,17.71,31.66,15.32,32,28.25,34,3.75-4.09V597.19l-6.81-13.28-6.13-24.17-.34-35.4,13.28-22.13,30.63-21.79,36.09-9.87,52.08-1h29.28L394.91,475l26.22,3.75,32.68.68,22.81-7.49,16-14.64,11.91-15v-4.08l4.77-16-3.07-13-4.76-4.76-9.19-3.41H473.21l-20.08-5.44-14.3-8.86-16.68-19.74L413,349l-12.6-12.26-18-13.62L370.06,317,351,314.63H316.28l-5.45,8.51L321,331.31l3.07,12.26-15-11.91-15.66-10.9-26.9-12.59L254,304.42H234.23l-25.53,1.7-5.1,2.73.34,11.23,9.53,13.28,20.08,17.7,25.54,12.25,17,1,2.72-8.17-14.64-7.83-14.3-15L255,327.2l17-3.37,15.44,3.37,18.26,11.6,16.68,9.54,5.11.34-3.06-15.32,10.89,3.74,17.36.68L369,341.87l10.22,8.85,9.53,11.91L398,378l16,19.41,26.55,11.23,29.62,4.77,22.47,1.36,5.1,2,1,5.79-2.38,13.28s-9.19,9.87-10.21,9.87-11.24,9.19-11.24,9.19l-16,2.38H403.77l-21.11-4.08-28.26-6.13-23.14-4.43-27.58-3.74-26.89-.68-19.41,3.06-13.27,6.13-10.9,5.79L220.28,461,203.94,477.7l-8.51,11.57L189,503.91l-12.6-19.4-19.74-16.68L143,457.27l-15.66-10.55L108.62,434.8l-14.3-7.49L80.7,418.12l-8.17-.34Z" transform="translate(17.43 15.45)"/><polygon class="cls-3" points="285.65 324.84 312.08 282.56 335.91 252.98 352.3 237.21 360.11 233.49 365.88 233.49 367.56 236.11 363.84 241.37 351.18 255.17 339.82 272.48 331.26 285.41 324.18 299.43 318.23 311.48 315.06 321.77 314.5 331.41 319.34 333.6 324.93 335.36 330.89 339.95 342.62 327.03 356.76 311.48 367.56 304.25 380.59 297.02 389.9 291.98 397.9 287.81 404.05 288.47 406.84 289.57 400.14 295.26 390.64 302.71 378.36 312.79 367.37 323.74 359.56 332.94 352.11 342.8 349.88 347.19 343.36 359.23 329.77 359.23 313.01 353.85 301.29 348.5 292.54 338.42 285.65 324.84"/><path class="cls-4" d="M320.14,331.26" transform="translate(17.43 15.45)"/><path class="cls-5" d="M320.9,333.3" transform="translate(17.43 15.45)"/></g><path d="M330.83,343.83c-2.65-.06-4.95,1.2-7.44,1.87a22.47,22.47,0,0,1-7.66.63l2.41,1.84-.11-.25v1.33c-.23.85-.49.6.37.37a8.62,8.62,0,0,1,1-.21c.77-.1,1.56-.11,2.34-.18a10.47,10.47,0,0,0,5.29-1.57,2.51,2.51,0,0,0-1.92-4.57c-6.08.91-12.15,2-18.29,2.38a2.5,2.5,0,1,0,0,5c6.58-.42,13.1-1.59,19.61-2.56l-1.92-4.57c-1.73,1.21-4.08.92-6.09,1.2-2.26.32-6.4,1.87-5.11,5a2.65,2.65,0,0,0,2.41,1.83,26.78,26.78,0,0,0,8.13-.6c2.29-.52,4.6-2,7-1.9,3.22.08,3.22-4.92,0-5Z" transform="translate(17.43 15.45)"/><path d="M318.12,311.65a9.13,9.13,0,0,0-4.94,3.71,8.1,8.1,0,0,0-1.13,2.59c-.1.38-.14.78-.22,1.17a1.31,1.31,0,0,1-.06.27c0,.1-.17.49,0,.09s-.18.15.13-.21,0,0-.07,0a2.49,2.49,0,0,0-.2,3.28,2.55,2.55,0,0,0,3.23.64c2.47-1.1,3.29-3.75,4.64-5.85.1-.17.46-.52.48-.7l-.11.14.1-.11.3-.36a12.26,12.26,0,0,1,1.32-1.28c.11-.1.24-.19.35-.3l-.26.21.25-.18c.25-.18.51-.35.77-.51s.49-.29.74-.42l.41-.2c.15-.07.73-.32,0,0a2.73,2.73,0,0,0,1.5-1.15,2.51,2.51,0,0,0-.9-3.42,2.41,2.41,0,0,0-1.92-.25,16.83,16.83,0,0,0-4,2.32,15.74,15.74,0,0,0-2.91,3.08,26.85,26.85,0,0,0-1.76,3c-.14.24-.28.48-.43.72l-.23.34c-.14.21.41-.49.05-.08a2.44,2.44,0,0,1-.27.29c-.07.07-.46.37-.1.11s0,0-.12.07l-.43.22,3,3.92a4.61,4.61,0,0,0,1.37-2.81,8.12,8.12,0,0,1,.23-1.09l.09-.27c.09-.25.06-.18-.1.2.1-.15.16-.34.25-.5a4.94,4.94,0,0,1,.3-.49l.16-.23c-.25.32-.29.38-.13.18a10.06,10.06,0,0,1,.8-.8c.2-.17.14-.12-.17.13l.23-.17.48-.29.25-.13c.24-.11.17-.08-.21.08.18,0,.36-.13.54-.18a2.5,2.5,0,0,0-1.33-4.82Z" transform="translate(17.43 15.45)"/><path d="M328.51,338.12c-1.05,1.9-3.58,2.17-5.51,2.54-2.54.48-4.95,1.74-7.54,1.85a74.47,74.47,0,0,0-8,.52,29.72,29.72,0,0,1-8.25.54v5c3-.27,6,.24,9,.07a14.52,14.52,0,0,0,4.52-.89c1.39-.54,2.64-1.34,4-1.95,4.94-2.23,10.56-2.09,15.29-4.93,2.76-1.66.25-6-2.52-4.32-4.34,2.61-9.7,2.58-14.32,4.51-1.24.52-2.38,1.2-3.59,1.78a9.44,9.44,0,0,1-3.59.81c-2.92.13-5.84-.34-8.76-.08a2.5,2.5,0,0,0,0,5c3.14.4,6.25-.21,9.34-.68s6-.13,9-.58a30.26,30.26,0,0,0,4.25-1.22c1.35-.42,2.75-.61,4.14-.91,2.8-.62,5.53-1.94,7-4.54,1.56-2.82-2.76-5.34-4.32-2.52Z" transform="translate(17.43 15.45)"/><path d="M330.27,335.64c-15.19,4.37-31.24,4.09-46.74,1.58a2.58,2.58,0,0,0-3.08,1.74A2.53,2.53,0,0,0,282.2,342c16.4,2.66,33.31,3,49.4-1.58,3.08-.89,1.77-5.72-1.33-4.82Z" transform="translate(17.43 15.45)"/><path d="M336.78,292A55.8,55.8,0,0,1,331,297.9c-2.07,2-3.91,4.23-5.8,6.4-4,4.61-8,9.21-12,13.87l4.17,2.44a2.22,2.22,0,0,1,1-1.09c.8-.62,1.64-1.18,2.42-1.83a22.31,22.31,0,0,0,4-4.63c2.26-3.26,5.36-5.91,8.22-8.63,5.88-5.61,12-11,19.19-14.87,2.83-1.53.31-5.85-2.52-4.32-7.68,4.14-14.26,10-20.53,16-3.14,3-6.32,5.92-8.8,9.51a16.22,16.22,0,0,1-3.92,4.09c-1.67,1.19-3.27,2.38-3.83,4.48-.6,2.27,2.5,4.41,4.18,2.43,4.05-4.78,8.18-9.5,12.3-14.22,1.89-2.18,3.75-4.39,5.83-6.38a57.33,57.33,0,0,0,6.28-6.57,2.52,2.52,0,0,0-.9-3.42,2.57,2.57,0,0,0-3.42.9Z" transform="translate(17.43 15.45)"/><path d="M349.44,289.44c12.32-8.73,25.64-15.88,38.93-23a2.5,2.5,0,1,0-2.52-4.32,320.89,320.89,0,0,0-41.21,23.44,2.51,2.51,0,0,0-1,3.12,2.48,2.48,0,0,0,2.95,1.45c15.39-5.94,29.44-14.73,44.58-21.23,2.57-1.11.7-5.64-1.93-4.57a259.38,259.38,0,0,0-43.15,22.27l2.52,4.31a338.35,338.35,0,0,1,33.73-19.12c2.5-1.23.71-5.64-1.93-4.57-5.53,2.25-10.66,5.41-15.85,8.33s-10.75,5.73-15.79,9.1a2.5,2.5,0,0,0,2.52,4.31c3-1.42,6.15-2.69,9-4.38s5.11-4.08,7.83-5.91a123.4,123.4,0,0,1,17.57-9.49,2.5,2.5,0,0,0-2.53-4.32,123.54,123.54,0,0,0-17.57,9.5c-2.65,1.78-4.91,4.14-7.64,5.79-2.9,1.75-6.13,3-9.19,4.5l2.52,4.31c4.91-3.27,10.22-6,15.36-8.86,4.94-2.77,9.83-5.92,15.09-8.06l-1.93-4.57a337.16,337.16,0,0,0-33.72,19.13c-2.69,1.74-.2,6.06,2.52,4.31a254,254,0,0,1,42-21.76l-1.93-4.57c-14.73,6.33-28.4,14.95-43.38,20.73l1.92,4.57a320.38,320.38,0,0,1,41.21-23.44l-2.52-4.32c-13.29,7.11-26.61,14.25-38.93,23a2.57,2.57,0,0,0-.9,3.42,2.52,2.52,0,0,0,3.42.9Z" transform="translate(17.43 15.45)"/><path d="M301.44,313.1c1.21-3.69,2.35-7.41,3.68-11.07a47.14,47.14,0,0,1,5.18-9.93,142,142,0,0,1,13.17-16.28c4.82-5.34,9.7-10.63,14.08-16.34a109.25,109.25,0,0,0,11.33-19.09c1.94-4,3.9-8,6.2-11.78s4.87-7.5,7.43-11.16a2.51,2.51,0,0,0-.39-3,2.6,2.6,0,0,0-3-.39c-3.48,1.64-6.4,4.73-9.17,7.35s-5.35,5.29-7.88,8.08a187.08,187.08,0,0,0-14.3,18.06,305.42,305.42,0,0,0-23.41,40c-4.08,8.25-7.49,16.92-7.93,26.21-.15,3.22,4.85,3.21,5,0,.36-7.67,3.08-15,6.36-21.86s6.9-13.47,10.63-20c7.29-12.84,15.37-25.3,25.07-36.46,2.74-3.16,5.61-6.22,8.62-9.14q2.21-2.16,4.52-4.22a21.43,21.43,0,0,1,5-3.68l-3.42-3.43a156.21,156.21,0,0,0-12.3,20.22c-3.4,6.9-6.69,13.74-11.26,20-8.43,11.49-19.24,21-27.43,32.69A56.48,56.48,0,0,0,300.94,299c-1.68,4.15-2.92,8.51-4.33,12.77-1,3.06,3.82,4.37,4.83,1.32Z" transform="translate(17.43 15.45)"/><path d="M310.84,245.85c.42-3.13,3-5.69,5.18-7.73,2.75-2.57,5.66-5,8.63-7.31a93,93,0,0,1,9.28-6.38c3.3-2,6.83-4.06,10.62-4.91a26,26,0,0,1,6.48-.29,33.18,33.18,0,0,0,7.11-.39c2.75-.51,2.15-5.13-.66-4.91a81.17,81.17,0,0,0-44.31,17.4l4.18,1.1c-.4.91-.43,1.18-.1.82a3.71,3.71,0,0,1,.29-.27c.27-.24.56-.47.85-.7.52-.4,1.07-.78,1.63-1.14,1.22-.81,2.5-1.53,3.79-2.23q3.85-2.07,7.79-4c5.18-2.53,10.66-4.81,16.44-5.44a2.58,2.58,0,0,0,2.5-2.5,2.51,2.51,0,0,0-2.5-2.5c-7.18.79-13.77,3.53-20.18,6.73-3.05,1.52-6.14,3-9.06,4.8a35.52,35.52,0,0,0-4.29,3c-1.39,1.14-2.72,2.84-2,4.74a2.55,2.55,0,0,0,4.18,1.1,75.24,75.24,0,0,1,40.77-15.93l-.66-4.91c-4.26.79-8.64-.23-12.92.54s-8.13,3-11.73,5.1a112,112,0,0,0-19.68,14.92c-3.34,3.11-6,6.65-6.65,11.27-.18,1.34,1.28,2.5,2.5,2.5a2.56,2.56,0,0,0,2.5-2.5Z" transform="translate(17.43 15.45)"/><path d="M362.32,218.54c3.22,0,3.22-5,0-5s-3.22,5,0,5Z" transform="translate(17.43 15.45)"/><path d="M337,210.54c3.21,0,3.22-5,0-5s-3.23,5,0,5Z" transform="translate(17.43 15.45)"/><path d="M307.25,216.38a112,112,0,0,1-16.4,17.73,2.5,2.5,0,0,0,3.53,3.54,118.44,118.44,0,0,0,17.19-18.75,2.52,2.52,0,0,0-.9-3.42,2.56,2.56,0,0,0-3.42.9Z" transform="translate(17.43 15.45)"/><path d="M287.14,244.06c3.88.36,7.83.52,11.47-1.12a22.25,22.25,0,0,0,5-3.56,17.85,17.85,0,0,1,4.57-2.76c3.42-1.46,7.1-2.22,10.54-3.67a18.88,18.88,0,0,0,8.72-6.71c1.79-2.68-2.53-5.19-4.32-2.52-1.64,2.45-4.41,3.94-7.11,5-3.39,1.28-6.92,2.11-10.25,3.57a21.05,21.05,0,0,0-4.7,2.79,34.49,34.49,0,0,1-4,3.11c-2.94,1.67-6.66,1.19-9.87.9a2.52,2.52,0,0,0-2.5,2.5,2.55,2.55,0,0,0,2.5,2.5Z" transform="translate(17.43 15.45)"/><path d="M330.15,224c3.22,0,3.22-5,0-5s-3.22,5,0,5Z" transform="translate(17.43 15.45)"/><path d="M348.5,215.41c-4.12-.58-7.87.45-11.59,2.19A80.83,80.83,0,0,0,327.4,223a61.57,61.57,0,0,0-15.86,14.32h4.31c.15.28,0,.32.17.11s.37-.52.59-.76c.48-.52,1-1,1.51-1.51q1.78-1.71,3.72-3.24a52.34,52.34,0,0,1,8-5l-3-3.92c-6.18,6-12.26,12.25-17.86,18.83-2.62,3.06-4.58,6.63-7.49,9.43s-6.07,5-8.85,7.8a52.12,52.12,0,0,0-8.26,10.82c-1.61,2.79,2.71,5.31,4.32,2.52a46.66,46.66,0,0,1,6.87-9.19c2.69-2.79,5.82-5.07,8.68-7.68s4.92-6,7.41-9.15c2.63-3.25,5.54-6.3,8.4-9.34q5-5.37,10.31-10.51c2.09-2-.56-5.2-3-3.92A55.62,55.62,0,0,0,317,229.44c-2.85,2.41-7.74,6.16-5.44,10.38,1,1.81,3.24,1.4,4.31,0a54.39,54.39,0,0,1,13.72-12.3,90.92,90.92,0,0,1,8.21-4.78c2.81-1.46,6.13-3,9.39-2.51a2.6,2.6,0,0,0,3.08-1.75c.32-1.17-.4-2.89-1.75-3.07Z" transform="translate(17.43 15.45)"/><path d="M349.78,290.41c2.1-.28,3.63-1.81,5.18-3.11s3.69-1.5,5.34-2.64c1.92-1.33,3.65-2.92,5.58-4.25a62.06,62.06,0,0,1,6.51-3.92c2.85-1.49.32-5.81-2.53-4.32a61,61,0,0,0-6.17,3.7c-1.95,1.32-3.74,2.84-5.61,4.26-1.66,1.25-3.77,1.46-5.45,2.68-1.46,1.06-2.59,2.56-4.17,2.78-1.34.18-2.07,1.9-1.75,3.07a2.56,2.56,0,0,0,3.07,1.75Z" transform="translate(17.43 15.45)"/><path d="M364,275.19c-5.55,3.71-10.48,8.35-16.49,11.35a2.5,2.5,0,0,0,2.53,4.32c6-3,10.93-7.65,16.48-11.35a2.56,2.56,0,0,0,.9-3.42,2.53,2.53,0,0,0-3.42-.9Z" transform="translate(17.43 15.45)"/><path d="M230,499.23A38.44,38.44,0,0,0,216.75,514a69.11,69.11,0,0,0-6.87,20.16c-1.48,8.37-.5,16.74,1.06,25,.75,4,1.47,8,2.54,11.88a51.47,51.47,0,0,0,4.81,11.25c4.62,8.37,9.36,16.68,14.05,25,1.57,2.81,5.89.29,4.31-2.52l-12.06-21.47a76,76,0,0,1-5.14-10,71.88,71.88,0,0,1-2.9-11.4c-1.54-7.66-3-15.45-2.27-23.31a60.52,60.52,0,0,1,5.5-19.47c2.86-6.18,6.89-11.92,12.74-15.59,2.72-1.71.21-6-2.53-4.32Z" transform="translate(17.43 15.45)"/><path d="M233.17,503.49c6.59-3,11.77-8.38,17.91-12.14,6.42-3.93,13.36-6.91,20.27-9.87,2.6-1.12.75-5.44-1.93-4.57-8,2.59-16.09,5.26-23.2,9.88-3.58,2.32-6.95,5-10.36,7.54l-11.11,8.37a2.58,2.58,0,0,0-.9,3.42,2.54,2.54,0,0,0,3.42.9c6.69-3.84,13.43-7.58,20-11.53a81.75,81.75,0,0,0,9.05-6.14c2.75-2.18,5.13-4.87,8.18-6.64a51.16,51.16,0,0,1,9.51-3.88q5.24-1.75,10.61-3a121,121,0,0,1,21.16-3.12,122.34,122.34,0,0,1,24.12.95,2.58,2.58,0,0,0,3.08-1.74,2.52,2.52,0,0,0-1.75-3.08,128.91,128.91,0,0,0-44.79,1.46,113.72,113.72,0,0,0-21.22,6.53,32.62,32.62,0,0,0-9,6.08,64.7,64.7,0,0,1-8.52,6.49c-7.46,4.75-15.31,8.93-23,13.33l2.52,4.32L238,499c3.42-2.58,6.79-5.24,10.37-7.59,6.87-4.53,14.62-7.12,22.39-9.63l-1.92-4.57c-6.91,3-13.85,5.94-20.27,9.87-6.15,3.76-11.32,9.13-17.91,12.14a2.52,2.52,0,0,0-.9,3.42,2.57,2.57,0,0,0,3.42.9Z" transform="translate(17.43 15.45)"/><path d="M329.29,473.39c8.56.45,17.13.89,25.7.85,4.16,0,8.31-.26,12.46-.4a57.91,57.91,0,0,1,12.05.91,110.8,110.8,0,0,1,13.7,3.35c3.08,1,4.4-3.86,1.33-4.82-7.89-2.47-16.36-4.47-24.68-4.48-4.29,0-8.59.36-12.88.42s-8.57,0-12.85-.15c-4.95-.16-9.89-.42-14.83-.68-3.21-.17-3.2,4.83,0,5Z" transform="translate(17.43 15.45)"/><path d="M390,478.45q20.19,2,40.49,2.6,9.88.3,19.79.28c6.23,0,12.69.07,18.71-1.78,6.43-2,11.38-6.66,17.5-9.24a2.51,2.51,0,0,0,.9-3.42A2.56,2.56,0,0,0,484,466c-5.16,2.18-9.39,6.14-14.63,8.16-5.59,2.15-11.67,2.15-17.57,2.18q-19.8.09-39.57-1.12-11.12-.68-22.2-1.76a2.51,2.51,0,0,0-2.5,2.5,2.56,2.56,0,0,0,2.5,2.5Z" transform="translate(17.43 15.45)"/><path d="M224.07,592.34c.81.8.89,2.18,1.1,3.25.32,1.68.62,3.36.89,5s.49,3.26.7,4.9a10.76,10.76,0,0,1,.11,4.19,6.56,6.56,0,0,1-2.28,2.71q-1.72,1.51-3.55,2.93a76.09,76.09,0,0,1-7.89,5.31c-2.77,1.64-.26,6,2.52,4.32a82.47,82.47,0,0,0,9.18-6.31c2.68-2.1,6.19-4.49,6.94-8a16.35,16.35,0,0,0-.06-5.36q-.37-3-.85-6c-.31-1.93-.64-3.86-1-5.77a8.79,8.79,0,0,0-2.25-4.73c-2.29-2.27-5.83,1.26-3.53,3.53Z" transform="translate(17.43 15.45)"/><path d="M224.93,614.52a30.84,30.84,0,0,1-7.05-2.06,2.5,2.5,0,0,0-2.53,4.31A20.59,20.59,0,0,0,220,619a17.47,17.47,0,0,0,2.15.58,7.28,7.28,0,0,0,3.14.24,2.84,2.84,0,0,0,2.1-2.66,3.74,3.74,0,0,0-1.1-2.53,7.35,7.35,0,0,0-3.92-2,17.23,17.23,0,0,1-7.25-3.52,50.6,50.6,0,0,1-6.78-7.25,2.52,2.52,0,0,0-3.53,0,2.55,2.55,0,0,0,0,3.54,44.17,44.17,0,0,0,9,8.94,20.36,20.36,0,0,0,5.44,2.66c.82.26,1.67.4,2.51.63l.59.19c.3.12-.3-.26.17.1.14.11.25.19.05,0,.39.31,0-.15.12.23l-.34-1.26,0,.19.35-1.27-.08.17.9-.9-.2.09,1.27-.34a13.71,13.71,0,0,1-6.71-2.43l-2.53,4.31a35.66,35.66,0,0,0,8.26,2.57,2.57,2.57,0,0,0,3.07-1.74,2.53,2.53,0,0,0-1.75-3.08Z" transform="translate(17.43 15.45)"/><path d="M230.21,611.47c-5.07,2.28-10.78-.86-14.35-4.39-4.38-4.32-7.69-9.81-11.15-14.86q-11.37-16.65-21.54-34.06-5.71-9.76-11-19.76c-1.51-2.84-5.83-.32-4.32,2.52q10,18.74,21.31,36.68,5.67,9,11.66,17.73c3.71,5.41,7.3,11.36,12.13,15.87,5.33,5,12.84,7.72,19.81,4.59a2.51,2.51,0,0,0,.9-3.42,2.56,2.56,0,0,0-3.42-.9Z" transform="translate(17.43 15.45)"/><path d="M68.31,433.8a33,33,0,0,1-5.23-7.16c-.14-.28-.17-.35-.11-.21-.08-.31-.1-.37-.06-.19s0,.21,0-.1.12-.32.05-.12a14.26,14.26,0,0,1,1.12-1.93,11.3,11.3,0,0,1,1.15-1.51,19.86,19.86,0,0,1,1.58-1.6,2.5,2.5,0,0,0-3.54-3.54,22.47,22.47,0,0,0-3.66,4.36c-1.14,1.78-2.18,3.81-1.49,6A18.93,18.93,0,0,0,61,432.71a42,42,0,0,0,3.78,4.63,2.5,2.5,0,0,0,3.54-3.54Z" transform="translate(17.43 15.45)"/><path d="M67.36,440a47.24,47.24,0,0,0-.87-7.29,22.25,22.25,0,0,1-.49-6.66c.51-3.82,3.76-5.92,7.43-6.08,4.83-.21,9.19,2.55,13.21,4.89l14.53,8.47c9.68,5.65,19.47,11.14,28.93,17.16,9.05,5.75,17.78,12,26.32,18.49,9.56,7.28,18.87,14.88,28.18,22.46a2.55,2.55,0,0,0,3.53,0,2.5,2.5,0,0,0,0-3.53C170.61,473.67,153,459.34,134,447.09c-9.89-6.36-20.16-12.12-30.32-18l-15.34-8.94c-4.48-2.6-9.4-5.27-14.75-5.11s-10.34,3-12.06,8.23c-1.81,5.51.75,11.24.82,16.81,0,3.21,5,3.22,5,0Z" transform="translate(17.43 15.45)"/><path d="M283.31,333c-2.07-2.11-3.74-4.57-6.12-6.37a15.43,15.43,0,0,0-7.79-2.86,29.51,29.51,0,0,0-8.28.5,16.65,16.65,0,0,0-8.32,3.49,8.9,8.9,0,0,0-3.12,7.36c.3,2.9,2.19,5.19,4.37,7,4.75,3.9,10.44,6.28,15.73,9.32a180.25,180.25,0,0,1,18,11.93,2.52,2.52,0,0,0,3.42-.9,2.57,2.57,0,0,0-.9-3.42c-4.51-3.37-9.16-6.57-13.95-9.53-4.55-2.83-9.35-5.13-14-7.8a28.85,28.85,0,0,1-5.91-4.18c-1.34-1.3-2.31-2.87-1.33-4.69,1.05-2,3.28-2.8,5.33-3.31a28.29,28.29,0,0,1,6.8-.87,11.63,11.63,0,0,1,7,1.93c2.19,1.6,3.71,4,5.6,6,2.25,2.3,5.79-1.24,3.53-3.54Z" transform="translate(17.43 15.45)"/><path d="M276,355.39c1.54,1.19,1.2,3,.55,4.67-.27.69-.58,1.67-1.26,2-.85.46-2.33.29-3.25.36a76.34,76.34,0,0,1-14.81,0c-9.56-1.14-18.66-4.72-28.35-5-3.22-.07-3.22,4.93,0,5,8.52.21,16.62,3.12,25,4.49a64.35,64.35,0,0,0,13.37.74c2.25-.1,4.5-.26,6.74-.44s4.37-.68,5.79-2.65c2.57-3.54,3.72-9.77-.21-12.82a2.59,2.59,0,0,0-3.54,0,2.53,2.53,0,0,0,0,3.54Z" transform="translate(17.43 15.45)"/><path d="M261.39,362.36c-10-1.7-19.1-6.31-27.42-12a117.66,117.66,0,0,1-11.91-9.16,35.36,35.36,0,0,1-5.18-5.48c-1.51-2.08-2.74-4.35-4.14-6.5-3.07-4.7-6.67-9.22-8.47-14.61-1-3-5.84-1.73-4.82,1.33,1.72,5.15,4.78,9.57,7.79,14s5.59,9.29,9.54,13.15a107,107,0,0,0,12.73,10.21A97.85,97.85,0,0,0,243,361.51a63.28,63.28,0,0,0,17,5.68,2.59,2.59,0,0,0,3.08-1.75,2.53,2.53,0,0,0-1.75-3.08Z" transform="translate(17.43 15.45)"/><path d="M203.28,322.09c0-3.76-.2-7.5-.56-11.24a2.56,2.56,0,0,0-2.5-2.5,2.53,2.53,0,0,0-2.5,2.5c.36,3.74.55,7.48.56,11.24a2.5,2.5,0,0,0,5,0Z" transform="translate(17.43 15.45)"/><path d="M205.41,319.16a28.19,28.19,0,0,1-.71-7.15,6.64,6.64,0,0,1,.19-2.21,4.92,4.92,0,0,1,1.12-.73c.48-.29,1-.57,1.47-.83,4.1-2.13,8.48-2.39,13-2.59,10.18-.45,20.37-1,30.56-1.36,5-.2,10.22-.14,14.37,3a2.51,2.51,0,0,0,3.42-.89,2.58,2.58,0,0,0-.9-3.43c-4.19-3.22-9.66-3.88-14.78-3.8-5.62.09-11.24.47-16.86.72l-17.05.77c-5.31.23-10.33,1-15,3.62a10.94,10.94,0,0,0-3.3,2.44,6.83,6.83,0,0,0-1.16,4.05,33.11,33.11,0,0,0,.83,9.67c.72,3.14,5.54,1.81,4.82-1.33Z" transform="translate(17.43 15.45)"/><path d="M383.17,475.85c3.56.2,7.05.89,10.57,1.39a89.22,89.22,0,0,0,10.83.8c7.27.11,14.55,0,21.83,0h33.39a107.69,107.69,0,0,0,10.78-.26c7.85-.8,14.63-4.41,21.35-8.29,2.78-1.61.27-5.94-2.53-4.32-5.64,3.26-11.46,6.66-18,7.52a79.49,79.49,0,0,1-10.58.35H450.07c-14.52,0-29,.08-43.55,0a87.62,87.62,0,0,1-11.45-.65c-4-.54-7.89-1.34-11.9-1.56-3.21-.17-3.2,4.83,0,5Z" transform="translate(17.43 15.45)"/><path d="M339,336.68c-5.79-.58-11.66-.89-17,1.66a2.53,2.53,0,0,0-.9,3.42,2.57,2.57,0,0,0,3.42.9,16.29,16.29,0,0,1,3.22-1l1.06-.19a1.61,1.61,0,0,1,.4-.05c.68-.06,1.36-.11,2-.13a60,60,0,0,1,7.81.42,2.51,2.51,0,0,0,2.5-2.5,2.58,2.58,0,0,0-2.5-2.5Z" transform="translate(17.43 15.45)"/><path d="M330.58,340.32a123,123,0,0,1,15.21,1.54,42.61,42.61,0,0,1,7.1,1.37,20.41,20.41,0,0,1,5.65,3.49,2.52,2.52,0,0,0,3.42-.89,2.56,2.56,0,0,0-.9-3.42,24.33,24.33,0,0,0-6.43-3.86,38.31,38.31,0,0,0-7.51-1.51,133,133,0,0,0-16.54-1.72c-3.21-.07-3.21,4.93,0,5Z" transform="translate(17.43 15.45)"/><path d="M249,302.8c1.8,1.93,4.51,2.31,7,2.7,2.79.44,5.6.76,8.42.93a2.52,2.52,0,0,0,2.5-2.5,2.55,2.55,0,0,0-2.5-2.5c-1.23-.08-2.46-.17-3.69-.3s-1.88-.21-3.14-.41c-1.08-.17-2.18-.33-3.24-.59l-.62-.17c-.14,0-.87-.41-.37-.12l-.54-.3c-.23-.16-.22-.16,0,0a4.11,4.11,0,0,1-.29-.3,2.51,2.51,0,0,0-3.53,0,2.55,2.55,0,0,0,0,3.54Z" transform="translate(17.43 15.45)"/><path d="M300.6,296.91c-.65,2.19-2.14,4-3.05,6.11a20.26,20.26,0,0,0-1.72,7.35c-.1,2.53.32,5.07,2.16,6.94,1.61,1.64,3.85,2.46,5.94,3.3a76.1,76.1,0,0,0,7.33,2.48,11.13,11.13,0,0,0,3.4.69,5.42,5.42,0,0,0,3.7-2.16,81.93,81.93,0,0,0,8.54-11.41,150.87,150.87,0,0,1,8.79-12.89,2.59,2.59,0,0,0,0-3.54,2.54,2.54,0,0,0-3.54,0c-5.24,6.51-9.11,13.94-14.17,20.57-.56.73-1.14,1.44-1.74,2.15-.32.37-.65.75-1,1.11s-1,.8-1.16,1.24L314,319c.67-.1.81-.18.41-.24a2.15,2.15,0,0,0-.64-.17c-.53-.14-1.06-.28-1.58-.44-1.13-.32-2.25-.68-3.36-1.06a40.59,40.59,0,0,1-5.71-2.26,3.48,3.48,0,0,1-2.25-3.59,14.48,14.48,0,0,1,1.31-6.28c1.06-2.28,2.57-4.27,3.29-6.71.93-3.09-3.9-4.41-4.82-1.33Z" transform="translate(17.43 15.45)"/><path d="M360.46,315c7.17,1.11,13.69,4.23,19.92,7.83a106.4,106.4,0,0,1,9.31,5.95,88.68,88.68,0,0,1,8.39,7.22c5.35,5,10.89,10.08,15.17,16.1,3.76,5.27,6.62,11.11,10.07,16.58a56.75,56.75,0,0,0,6.62,8.8c2.77,2.94,6.23,5.14,8.94,8.14,2.17,2.38,5.7-1.16,3.54-3.54-2.45-2.7-5.53-4.71-8.11-7.28a45.8,45.8,0,0,1-6-7.63c-3.59-5.54-6.49-11.5-10.25-16.94-4.26-6.16-9.63-11.35-15-16.47-2.85-2.69-5.7-5.38-8.79-7.79a90.58,90.58,0,0,0-9.35-6.31c-7.14-4.26-14.75-8.2-23.06-9.48a2.57,2.57,0,0,0-3.07,1.74,2.52,2.52,0,0,0,1.74,3.08Z" transform="translate(17.43 15.45)"/><path d="M425.26,371.68a102.31,102.31,0,0,0,10.57,13.93,38.72,38.72,0,0,0,14.92,9.84,180.37,180.37,0,0,0,19.32,5.68,49.28,49.28,0,0,0,10.4,1.46c3.54.08,7.07-.19,10.6-.31a43.43,43.43,0,0,1,10.44.56,20.9,20.9,0,0,1,4.57,1.43c1.76.81,3.37,1.85,5.2,2.54a2.51,2.51,0,0,0,3.07-1.75,2.54,2.54,0,0,0-1.74-3.07c-1.34-.5-2.53-1.33-3.81-1.95a25.85,25.85,0,0,0-4.69-1.73,39.33,39.33,0,0,0-9.36-1.09c-6.54-.07-13.14,1-19.64-.12s-12.95-3.24-19.25-5.21c-5.58-1.74-10.54-4.08-14.81-8.13-4.52-4.28-8-9.46-11.47-14.6-1.79-2.66-6.12-.16-4.32,2.52Z" transform="translate(17.43 15.45)"/><path d="M477.43,415.41c-14.86-3.23-30.15-4.82-44.56-9.88a70,70,0,0,1-18.63-9.64A65.24,65.24,0,0,1,400.83,382a136.77,136.77,0,0,1-11.63-19.7c-1.43-2.88-5.75-.35-4.31,2.52,6.16,12.34,13.52,24.64,24.35,33.46,11.51,9.39,25.87,13.91,40.21,16.87,8.86,1.83,17.81,3.17,26.66,5.09,3.13.69,4.47-4.13,1.32-4.82Z" transform="translate(17.43 15.45)"/><path d="M390.5,364.64c-2.17-4.69-6.25-7.94-9.88-11.45s-6.32-8.42-10.69-11.43-10-4.07-15.26-4.77c-6.06-.8-12.19-1.4-18.3-1.6-6.38-.2-13.35.77-17.85,5.77-2.15,2.38,1.38,5.93,3.54,3.53,3.39-3.76,8.55-4.4,13.37-4.32a167.4,167.4,0,0,1,17.47,1.4c4.54.55,9.33,1.24,13.34,3.57,4.24,2.46,6.53,7,9.89,10.44,3.55,3.61,7.87,6.66,10.06,11.38a2.52,2.52,0,0,0,3.42.9,2.56,2.56,0,0,0,.89-3.42Z" transform="translate(17.43 15.45)"/><path d="M214.13,541.44a22.67,22.67,0,0,0-1.41,9.92,2.5,2.5,0,0,0,5,0c-.06-.8-.09-1.6-.07-2.4,0-.34,0-.68.06-1s0-.45.07-.68c0-.51-.09.54,0,0a21,21,0,0,1,1.18-4.47,2.52,2.52,0,0,0-1.75-3.07,2.57,2.57,0,0,0-3.08,1.74Z" transform="translate(17.43 15.45)"/></svg>