<svg id="Calque_1" data-name="Calque 1" xmlns="http://www.w3.org/2000/svg" xmlns:xlink="http://www.w3.org/1999/xlink" viewBox="0 0 453.55 419.82"><defs><style>.cls-1{fill:#fff;}.cls-2{opacity:0.5;}.cls-3{fill:url(#Dégradé_sans_nom_150);}.cls-4{fill:url(#Dégradé_sans_nom_149);}.cls-5{fill:url(#Dégradé_sans_nom_146);}.cls-6{fill:url(#Dégradé_sans_nom_143);}</style><linearGradient id="Dégradé_sans_nom_150" x1="185.55" y1="406.37" x2="522.02" y2="406.37" gradientUnits="userSpaceOnUse"><stop offset="0.44" stop-color="#cf982b"/><stop offset="0.5" stop-color="#d4a342"/><stop offset="0.85" stop-color="#f3e5c9"/><stop offset="1" stop-color="#fff"/></linearGradient><linearGradient id="Dégradé_sans_nom_149" x1="323.08" y1="77.09" x2="381.29" y2="77.09" gradientUnits="userSpaceOnUse"><stop offset="0.43" stop-color="#cf982b"/><stop offset="0.62" stop-color="#cf992d"/><stop offset="0.68" stop-color="#d19c34"/><stop offset="0.73" stop-color="#d4a23f"/><stop offset="0.77" stop-color="#d7aa50"/><stop offset="0.8" stop-color="#dcb566"/><stop offset="0.83" stop-color="#e3c282"/><stop offset="0.86" stop-color="#ead2a2"/><stop offset="0.88" stop-color="#f2e4c8"/><stop offset="0.9" stop-color="#fcf8f1"/><stop offset="0.91" stop-color="#fff"/></linearGradient><linearGradient id="Dégradé_sans_nom_146" x1="299.73" y1="278.15" x2="299.73" y2="278.15" gradientUnits="userSpaceOnUse"><stop offset="0" stop-color="#cf982b"/><stop offset="NaN" stop-color="#d29f39"/><stop offset="NaN" stop-color="#dcb362"/><stop offset="NaN" stop-color="#e4c588"/><stop offset="NaN" stop-color="#ebd5a8"/><stop offset="NaN" stop-color="#f2e2c4"/><stop offset="NaN" stop-color="#f7edda"/><stop offset="NaN" stop-color="#faf5eb"/><stop offset="NaN" stop-color="#fdfbf6"/><stop offset="NaN" stop-color="#fffefd"/><stop offset="NaN" stop-color="#fff"/></linearGradient><linearGradient id="Dégradé_sans_nom_143" x1="300.49" y1="280.19" x2="300.49" y2="280.19" gradientUnits="userSpaceOnUse"><stop offset="0" stop-color="#cf982b"/><stop offset="0.01" stop-color="#d29f39"/><stop offset="0.06" stop-color="#dcb362"/><stop offset="0.11" stop-color="#e4c588"/><stop offset="0.16" stop-color="#ebd5a8"/><stop offset="0.23" stop-color="#f2e2c4"/><stop offset="0.29" stop-color="#f7edda"/><stop offset="0.37" stop-color="#faf5eb"/><stop offset="0.47" stop-color="#fdfbf6"/><stop offset="0.61" stop-color="#fffefd"/><stop offset="1" stop-color="#fff"/></linearGradient></defs><path class="cls-1" d="M204.22,559.69a30.92,30.92,0,0,1-7.06-2.06,2.57,2.57,0,0,0-3.42.89,2.54,2.54,0,0,0,.9,3.42,20.52,20.52,0,0,0,4.6,2.21,18.12,18.12,0,0,0,2.16.58,7.24,7.24,0,0,0,3.13.24,2.85,2.85,0,0,0,2.11-2.67,3.79,3.79,0,0,0-1.11-2.52,7.31,7.31,0,0,0-3.92-1.95,17.13,17.13,0,0,1-7.25-3.53,49.39,49.39,0,0,1-6.77-7.24,2.54,2.54,0,0,0-3.54,0,2.57,2.57,0,0,0,0,3.54,44.17,44.17,0,0,0,9,8.94,20.51,20.51,0,0,0,5.44,2.66c.82.26,1.68.4,2.51.63l.59.19c.31.12-.29-.27.17.1.14.11.26.19.06,0,.38.31-.05-.15.12.23l-.34-1.26,0,.18L202,561l-.07.16.89-.89-.19.09,1.26-.34a13.75,13.75,0,0,1-6.71-2.43l-2.52,4.31a35.58,35.58,0,0,0,8.25,2.57,2.56,2.56,0,0,0,3.07-1.74,2.53,2.53,0,0,0-1.74-3.08Z" transform="translate(-40.18 -150.71)"/><g class="cls-2"><path class="cls-3" d="M45.21,369.14l29.72,24,30.3,30.64,36.42,40,17.71,31.66,15.31,32,28.26,34,3.74-4.09V544.08l-6.8-13.28-6.13-24.17-.34-35.41,13.27-22.12,30.64-21.79,36.09-9.87,52.08-1h29.28l19.74,5.44,26.22,3.75,32.68.68,22.81-7.49,16-14.64,11.91-15V385.1l4.77-16-3.07-13-4.76-4.76L471.87,348H452.8l-20.08-5.45-14.3-8.85L401.74,314l-9.19-18L380,283.65l-18-13.62-12.26-6.12-19.06-2.39H295.87L290.42,270l10.21,8.17,3.07,12.26-15-11.92-15.66-10.89-26.9-12.6-12.59-3.74H213.82L188.29,253l-5.11,2.73.35,11.23,9.53,13.28L213.14,298l25.53,12.25,17,1,2.72-8.17-14.64-7.83-14.3-15,5.11-6.17,17-3.37,15.44,3.37,18.26,11.61L302,295.22l5.11.35L304,280.25,314.93,284l17.36.68,16.34,4.09,10.21,8.85,9.54,11.91,9.19,15.32,16,19.41,26.55,11.23,29.62,4.77,22.47,1.36,5.1,2,1,5.79L476,382.71s-9.19,9.88-10.21,9.88-11.24,9.19-11.24,9.19l-16,2.38H383.36l-21.11-4.08L334,394l-23.15-4.43-27.57-3.74-26.89-.68L237,388.16l-13.27,6.13-10.9,5.79-12.93,7.83-16.34,16.68L175,436.16l-6.46,14.64L156,431.4l-19.74-16.69-13.62-10.55-15.66-10.55L88.21,381.69l-14.3-7.49L60.29,365l-8.17-.34Z" transform="translate(-40.18 -150.71)"/><polygon class="cls-4" points="207.63 105.57 234.07 63.29 257.9 33.71 274.28 17.94 282.1 14.21 287.87 14.21 289.55 16.84 285.82 22.1 273.16 35.9 261.81 53.21 253.24 66.14 246.17 80.16 240.21 92.21 237.05 102.5 236.49 112.14 241.33 114.33 246.91 116.08 252.87 120.69 264.6 107.76 278.75 92.21 289.55 84.98 302.58 77.75 311.88 72.71 319.89 68.55 326.03 69.2 328.82 70.3 322.12 75.99 312.63 83.44 300.34 93.52 289.36 104.47 281.54 113.67 274.09 123.53 271.86 127.92 265.34 139.96 251.75 139.96 235 134.58 223.27 129.23 214.52 119.15 207.63 105.57"/><path class="cls-5" d="M299.73,278.15" transform="translate(-40.18 -150.71)"/><path class="cls-6" d="M300.49,280.19" transform="translate(-40.18 -150.71)"/></g><path class="cls-1" d="M310.11,289c-2.64-.06-4.94,1.2-7.44,1.87a22.47,22.47,0,0,1-7.66.63l2.41,1.84-.1-.25v1.33c-.24.85-.5.59.36.37a8.37,8.37,0,0,1,1-.21c.77-.1,1.55-.11,2.33-.18a10.47,10.47,0,0,0,5.29-1.57,2.51,2.51,0,0,0-1.92-4.57c-6.07.91-12.15,2-18.28,2.38a2.5,2.5,0,0,0,0,5c6.57-.42,13.1-1.59,19.61-2.56l-1.93-4.57c-1.73,1.21-4.08.92-6.09,1.2-2.26.32-6.4,1.87-5.11,5A2.65,2.65,0,0,0,295,296.5a26.78,26.78,0,0,0,8.13-.6c2.29-.52,4.61-1.95,7-1.9,3.22.08,3.22-4.92,0-5Z" transform="translate(-40.18 -150.71)"/><path class="cls-1" d="M297.4,256.82a9.13,9.13,0,0,0-4.94,3.71,8.1,8.1,0,0,0-1.13,2.59c-.1.38-.14.78-.21,1.17l-.06.27c0,.1-.18.49,0,.09s-.18.15.13-.21,0,0-.07,0a2.49,2.49,0,0,0-.2,3.28,2.55,2.55,0,0,0,3.23.64c2.47-1.1,3.29-3.75,4.64-5.85.11-.17.47-.52.48-.7l-.11.14.1-.11.3-.36a12.26,12.26,0,0,1,1.32-1.28l.36-.3-.27.21.25-.18c.25-.18.51-.35.77-.51s.49-.29.74-.42l.41-.2c.15-.07.73-.32,0,0a2.75,2.75,0,0,0,1.49-1.15,2.51,2.51,0,0,0-.9-3.42,2.41,2.41,0,0,0-1.92-.25,16.83,16.83,0,0,0-4,2.32,15.74,15.74,0,0,0-2.91,3.08,27.63,27.63,0,0,0-1.76,3,7.74,7.74,0,0,1-.43.73l-.23.34c-.14.21.41-.49.06-.08a3.83,3.83,0,0,1-.28.29c-.07.07-.45.37-.09.11s-.05,0-.13.07l-.42.21,3,3.93A4.65,4.65,0,0,0,296,265.2a7.81,7.81,0,0,1,.23-1.09l.09-.27c.1-.25.06-.18-.09.2.1-.15.16-.34.25-.5s.19-.33.29-.49l.16-.23c-.25.32-.29.38-.13.18a10.06,10.06,0,0,1,.8-.8c.2-.17.15-.12-.17.13l.23-.17.48-.29.25-.13c.24-.11.17-.08-.21.08.18,0,.36-.13.54-.18a2.5,2.5,0,0,0-1.33-4.82Z" transform="translate(-40.18 -150.71)"/><path class="cls-1" d="M307.8,283.29c-1.06,1.9-3.58,2.17-5.52,2.54-2.53.48-4.95,1.74-7.53,1.85a74.49,74.49,0,0,0-8,.52,29.67,29.67,0,0,1-8.25.54v5c3-.27,6,.24,9,.06a14.51,14.51,0,0,0,4.52-.88c1.39-.54,2.64-1.34,4-1.95,4.93-2.23,10.55-2.09,15.29-4.93,2.75-1.66.24-6-2.53-4.32-4.34,2.61-9.69,2.58-14.32,4.51-1.24.52-2.38,1.2-3.59,1.78a9.21,9.21,0,0,1-3.59.8c-2.92.14-5.83-.33-8.76-.07a2.5,2.5,0,0,0,0,5c3.14.39,6.25-.21,9.34-.68s6-.13,8.95-.58a29.88,29.88,0,0,0,4.25-1.22c1.35-.42,2.76-.61,4.14-.91,2.8-.62,5.53-1.94,7-4.54,1.56-2.82-2.75-5.34-4.31-2.52Z" transform="translate(-40.18 -150.71)"/><path class="cls-1" d="M309.55,280.81c-15.19,4.37-31.24,4.09-46.74,1.58a2.56,2.56,0,0,0-3.07,1.74,2.52,2.52,0,0,0,1.74,3.08c16.4,2.66,33.31,3.05,49.4-1.58,3.08-.89,1.77-5.72-1.33-4.82Z" transform="translate(-40.18 -150.71)"/><path class="cls-1" d="M316.06,237.19a55.8,55.8,0,0,1-5.83,5.88c-2.07,2-3.91,4.23-5.8,6.4-4,4.61-8,9.21-12,13.87l4.18,2.43a2.24,2.24,0,0,1,1-1.09c.8-.61,1.65-1.17,2.43-1.82a22.52,22.52,0,0,0,4-4.63c2.26-3.26,5.36-5.91,8.22-8.63,5.88-5.61,12-11,19.19-14.87,2.84-1.53.31-5.85-2.52-4.32-7.68,4.14-14.26,10-20.53,16-3.14,3-6.31,5.92-8.79,9.51a16.26,16.26,0,0,1-3.93,4.09c-1.67,1.19-3.27,2.38-3.82,4.48-.61,2.27,2.5,4.41,4.17,2.43,4.06-4.78,8.18-9.5,12.3-14.22,1.9-2.18,3.75-4.39,5.84-6.38a58.11,58.11,0,0,0,6.27-6.57,2.51,2.51,0,0,0-.9-3.42,2.57,2.57,0,0,0-3.42.9Z" transform="translate(-40.18 -150.71)"/><path class="cls-1" d="M328.72,234.6c12.32-8.72,25.64-15.87,38.93-23a2.5,2.5,0,1,0-2.52-4.32,320.38,320.38,0,0,0-41.21,23.44,2.51,2.51,0,0,0-1,3.12,2.48,2.48,0,0,0,3,1.45c15.39-5.94,29.44-14.73,44.58-21.24,2.57-1.1.71-5.63-1.93-4.56a259.38,259.38,0,0,0-43.15,22.27l2.53,4.31A337.08,337.08,0,0,1,361.6,217c2.5-1.23.72-5.64-1.93-4.57-5.53,2.25-10.66,5.41-15.85,8.33s-10.75,5.73-15.79,9.1a2.5,2.5,0,0,0,2.53,4.31c3-1.42,6.14-2.69,9-4.38s5.12-4.08,7.83-5.91a124,124,0,0,1,17.57-9.5,2.52,2.52,0,0,0,.9-3.42,2.55,2.55,0,0,0-3.42-.89,122.46,122.46,0,0,0-17.57,9.5c-2.65,1.78-4.92,4.14-7.64,5.79-2.91,1.75-6.14,3-9.2,4.5l2.53,4.31c4.9-3.27,10.21-6,15.35-8.86,4.94-2.77,9.84-5.92,15.09-8.06l-1.92-4.57a338.43,338.43,0,0,0-33.73,19.13c-2.69,1.74-.19,6.06,2.53,4.31a253.5,253.5,0,0,1,41.95-21.76l-1.92-4.57c-14.74,6.33-28.41,14.95-43.39,20.73l1.93,4.57a319.59,319.59,0,0,1,41.2-23.44l-2.52-4.32c-13.29,7.11-26.61,14.25-38.93,23a2.57,2.57,0,0,0-.9,3.42,2.51,2.51,0,0,0,3.42.89Z" transform="translate(-40.18 -150.71)"/><path class="cls-1" d="M280.72,258.27c1.21-3.69,2.35-7.41,3.68-11.07a46.72,46.72,0,0,1,5.19-9.93A139.89,139.89,0,0,1,302.76,221c4.81-5.34,9.69-10.63,14.08-16.34a108.59,108.59,0,0,0,11.32-19.09c1.94-4,3.9-8,6.2-11.78s4.88-7.5,7.43-11.16a2.51,2.51,0,0,0-.39-3,2.6,2.6,0,0,0-3-.39c-3.48,1.64-6.4,4.73-9.16,7.35s-5.36,5.29-7.89,8.08A185.44,185.44,0,0,0,307,192.69a304.3,304.3,0,0,0-23.41,40c-4.08,8.25-7.5,16.92-7.93,26.21-.15,3.22,4.85,3.21,5,0,.36-7.67,3.07-15,6.35-21.86s6.9-13.48,10.63-20c7.29-12.84,15.38-25.3,25.07-36.46,2.75-3.16,5.62-6.22,8.62-9.14q2.22-2.16,4.53-4.22a21.49,21.49,0,0,1,5-3.69l-3.42-3.42a156.21,156.21,0,0,0-12.3,20.22c-3.39,6.9-6.69,13.74-11.26,20-8.43,11.49-19.24,21-27.43,32.69a55.94,55.94,0,0,0-6.25,11.21c-1.68,4.15-2.93,8.51-4.33,12.76-1,3.07,3.82,4.38,4.82,1.33Z" transform="translate(-40.18 -150.71)"/><path class="cls-1" d="M290.12,191c.42-3.13,3-5.69,5.18-7.73,2.76-2.57,5.66-5,8.64-7.31a93.53,93.53,0,0,1,9.27-6.39c3.3-2,6.84-4.05,10.62-4.9a26,26,0,0,1,6.48-.29,33.27,33.27,0,0,0,7.12-.39c2.75-.51,2.15-5.13-.67-4.91a81.1,81.1,0,0,0-44.3,17.39l4.17,1.11c-.39.91-.43,1.18-.1.82a3.71,3.71,0,0,1,.29-.27l.85-.7c.52-.4,1.08-.78,1.63-1.14,1.23-.81,2.5-1.53,3.79-2.23,2.57-1.38,5.18-2.71,7.8-4,5.17-2.53,10.66-4.81,16.43-5.44a2.57,2.57,0,0,0,2.5-2.5,2.51,2.51,0,0,0-2.5-2.5c-7.17.78-13.77,3.53-20.18,6.73-3.05,1.52-6.14,3-9.06,4.79a37.63,37.63,0,0,0-4.29,3c-1.39,1.14-2.72,2.84-2,4.74A2.55,2.55,0,0,0,296,180a75.27,75.27,0,0,1,40.77-15.93l-.66-4.91c-4.26.79-8.64-.23-12.92.54s-8.13,3-11.73,5.1a112.42,112.42,0,0,0-19.68,14.92c-3.34,3.11-6,6.65-6.65,11.27-.18,1.34,1.28,2.5,2.5,2.5a2.57,2.57,0,0,0,2.5-2.5Z" transform="translate(-40.18 -150.71)"/><path class="cls-1" d="M341.6,163.71c3.22,0,3.22-5,0-5s-3.22,5,0,5Z" transform="translate(-40.18 -150.71)"/><path class="cls-1" d="M316.24,155.71c3.22,0,3.22-5,0-5s-3.22,5,0,5Z" transform="translate(-40.18 -150.71)"/><path class="cls-1" d="M286.53,161.55a112,112,0,0,1-16.4,17.73,2.5,2.5,0,1,0,3.53,3.54,118.44,118.44,0,0,0,17.19-18.75,2.52,2.52,0,0,0-.9-3.42,2.56,2.56,0,0,0-3.42.9Z" transform="translate(-40.18 -150.71)"/><path class="cls-1" d="M266.42,189.23c3.88.35,7.84.52,11.47-1.12a22.57,22.57,0,0,0,5-3.56,18,18,0,0,1,4.57-2.76c3.43-1.46,7.11-2.22,10.54-3.67a18.88,18.88,0,0,0,8.72-6.71c1.8-2.68-2.53-5.19-4.32-2.52-1.64,2.45-4.41,3.94-7.11,5-3.39,1.28-6.92,2.11-10.25,3.56a21.77,21.77,0,0,0-4.69,2.79,34.44,34.44,0,0,1-4,3.12c-2.93,1.67-6.66,1.19-9.87.9a2.52,2.52,0,0,0-2.5,2.5,2.55,2.55,0,0,0,2.5,2.5Z" transform="translate(-40.18 -150.71)"/><path class="cls-1" d="M309.43,169.16c3.22,0,3.22-5,0-5s-3.22,5,0,5Z" transform="translate(-40.18 -150.71)"/><path class="cls-1" d="M327.78,160.58c-4.12-.58-7.86.45-11.59,2.19a80.83,80.83,0,0,0-9.51,5.37,61.74,61.74,0,0,0-15.86,14.32h4.32c.15.28,0,.32.17.11s.36-.52.58-.76c.48-.52,1-1,1.52-1.51a47.53,47.53,0,0,1,3.71-3.24,51.2,51.2,0,0,1,8-5.05l-3-3.92c-6.18,6-12.26,12.25-17.86,18.83-2.61,3.06-4.57,6.63-7.49,9.43s-6.06,5-8.85,7.8A52.12,52.12,0,0,0,263.59,215c-1.61,2.79,2.71,5.31,4.32,2.52a46.37,46.37,0,0,1,6.87-9.19c2.69-2.79,5.82-5.07,8.68-7.68s4.92-6.05,7.42-9.15c2.62-3.25,5.54-6.3,8.4-9.34q5-5.37,10.3-10.51c2.09-2-.55-5.2-3-3.92a55.62,55.62,0,0,0-10.29,6.91c-2.85,2.41-7.74,6.16-5.44,10.38,1,1.81,3.25,1.4,4.32,0a54.4,54.4,0,0,1,13.71-12.31,93.25,93.25,0,0,1,8.21-4.77c2.81-1.46,6.14-3,9.4-2.51a2.59,2.59,0,0,0,3.07-1.75c.32-1.17-.4-2.89-1.75-3.07Z" transform="translate(-40.18 -150.71)"/><path class="cls-1" d="M329.07,235.58c2.09-.28,3.63-1.81,5.17-3.11s3.69-1.5,5.34-2.64c1.93-1.33,3.66-2.92,5.58-4.25a63.11,63.11,0,0,1,6.51-3.92c2.85-1.49.32-5.81-2.53-4.32A62.15,62.15,0,0,0,343,221c-2,1.32-3.73,2.84-5.61,4.26-1.66,1.25-3.77,1.46-5.44,2.68-1.47,1.06-2.59,2.56-4.18,2.78-1.34.18-2.07,1.9-1.75,3.07a2.57,2.57,0,0,0,3.08,1.75Z" transform="translate(-40.18 -150.71)"/><path class="cls-1" d="M343.31,220.36c-5.55,3.7-10.47,8.35-16.48,11.35a2.52,2.52,0,0,0-.9,3.42,2.56,2.56,0,0,0,3.42.9c6-3,10.93-7.65,16.48-11.35a2.5,2.5,0,0,0-2.52-4.32Z" transform="translate(-40.18 -150.71)"/><path class="cls-1" d="M209.28,444.4A38.47,38.47,0,0,0,196,459.19a69.11,69.11,0,0,0-6.87,20.16c-1.48,8.37-.5,16.74,1.06,25,.75,4,1.47,8,2.54,11.89a51.5,51.5,0,0,0,4.82,11.25c4.61,8.37,9.36,16.68,14,25,1.57,2.81,5.9.29,4.32-2.52l-12.06-21.47a76.65,76.65,0,0,1-5.15-10,70.78,70.78,0,0,1-2.89-11.4c-1.55-7.66-3-15.45-2.28-23.31a60.52,60.52,0,0,1,5.5-19.47c2.87-6.18,6.89-11.92,12.74-15.59,2.72-1.71.21-6-2.52-4.32Z" transform="translate(-40.18 -150.71)"/><path class="cls-1" d="M212.46,448.66c6.58-3,11.76-8.38,17.9-12.14,6.43-3.93,13.37-6.91,20.27-9.87,2.6-1.12.75-5.44-1.92-4.57-8,2.59-16.1,5.26-23.2,9.87-3.59,2.33-6.95,5-10.36,7.55L204,447.87a2.58,2.58,0,0,0-.9,3.42,2.54,2.54,0,0,0,3.42.9c6.69-3.84,13.43-7.58,20-11.53a81.75,81.75,0,0,0,9.05-6.14c2.75-2.18,5.13-4.87,8.18-6.64a50.76,50.76,0,0,1,9.51-3.88q5.23-1.75,10.62-3a120.74,120.74,0,0,1,21.15-3.12,122.34,122.34,0,0,1,24.12.95,2.59,2.59,0,0,0,3.08-1.74,2.52,2.52,0,0,0-1.75-3.08,128.91,128.91,0,0,0-44.79,1.46A114,114,0,0,0,244.55,422a33.11,33.11,0,0,0-9,6.07,63.91,63.91,0,0,1-8.52,6.5c-7.46,4.75-15.31,8.93-23,13.33l2.52,4.32,10.72-8.07c3.42-2.58,6.8-5.24,10.37-7.59,6.87-4.53,14.62-7.12,22.39-9.63l-1.92-4.57c-6.91,3-13.85,5.94-20.27,9.87-6.14,3.76-11.32,9.13-17.91,12.14a2.52,2.52,0,0,0-.89,3.42,2.56,2.56,0,0,0,3.42.9Z" transform="translate(-40.18 -150.71)"/><path class="cls-1" d="M308.58,418.56c8.56.45,17.12.89,25.69.85,4.16,0,8.31-.26,12.47-.4a58,58,0,0,1,12.05.91,111.09,111.09,0,0,1,13.69,3.35c3.08,1,4.4-3.86,1.33-4.82C365.92,416,357.45,414,349.14,414c-4.3,0-8.59.37-12.89.43s-8.57,0-12.85-.15c-4.94-.17-9.88-.42-14.82-.68-3.22-.17-3.21,4.83,0,5Z" transform="translate(-40.18 -150.71)"/><path class="cls-1" d="M369.26,423.61q20.19,2,40.49,2.61,9.9.3,19.79.28c6.24,0,12.69.07,18.71-1.78,6.43-2,11.38-6.66,17.51-9.24a2.52,2.52,0,0,0,.89-3.42,2.56,2.56,0,0,0-3.42-.9c-5.16,2.18-9.39,6.14-14.62,8.16-5.6,2.15-11.67,2.15-17.58,2.18q-19.8.09-39.57-1.12-11.11-.67-22.2-1.77a2.5,2.5,0,0,0,0,5Z" transform="translate(-40.18 -150.71)"/><path class="cls-1" d="M203.35,537.51c.81.8.9,2.18,1.1,3.25.33,1.68.62,3.36.89,5s.5,3.26.7,4.9a10.76,10.76,0,0,1,.11,4.19,6.55,6.55,0,0,1-2.28,2.71q-1.73,1.51-3.54,2.93a77.31,77.31,0,0,1-7.9,5.31c-2.77,1.64-.25,6,2.53,4.32a84.36,84.36,0,0,0,9.18-6.31c2.67-2.1,6.18-4.49,6.93-8a16.41,16.41,0,0,0-.06-5.37c-.25-2-.53-4-.85-6s-.64-3.86-1-5.77a8.84,8.84,0,0,0-2.24-4.74c-2.3-2.26-5.83,1.27-3.54,3.54Z" transform="translate(-40.18 -150.71)"/><path class="cls-1" d="M209.49,556.64c-5.07,2.27-10.78-.86-14.35-4.39-4.37-4.32-7.69-9.81-11.15-14.86q-11.37-16.65-21.54-34.06-5.72-9.76-11-19.76c-1.51-2.84-5.83-.32-4.31,2.52q10,18.74,21.3,36.68,5.67,9,11.67,17.72c3.71,5.42,7.3,11.37,12.13,15.88,5.32,5,12.83,7.71,19.81,4.59a2.52,2.52,0,0,0,.89-3.42,2.56,2.56,0,0,0-3.42-.9Z" transform="translate(-40.18 -150.71)"/><path class="cls-1" d="M314.7,300.5a33.16,33.16,0,0,1-5.22-7.15q-.21-.44-.12-.21c-.08-.31-.1-.38-.06-.19s0,.2,0-.1.11-.33.05-.13a14.89,14.89,0,0,1,1.12-1.93,11.81,11.81,0,0,1,1.14-1.5,21.84,21.84,0,0,1,1.58-1.61,2.51,2.51,0,0,0,0-3.53,2.54,2.54,0,0,0-3.53,0,21.84,21.84,0,0,0-3.66,4.36c-1.15,1.78-2.18,3.8-1.5,6a19.39,19.39,0,0,0,2.84,4.95,42.79,42.79,0,0,0,3.78,4.62,2.5,2.5,0,0,0,3.54-3.54Z" transform="translate(-40.18 -150.71)"/><path class="cls-1" d="M46.64,385.21a47.1,47.1,0,0,0-.87-7.29,22.58,22.58,0,0,1-.49-6.66c.51-3.82,3.76-5.92,7.43-6.08,4.83-.21,9.2,2.55,13.21,4.89l14.53,8.47c9.68,5.65,19.47,11.14,28.93,17.16,9.05,5.75,17.78,12,26.32,18.49,9.56,7.28,18.87,14.88,28.18,22.46a2.57,2.57,0,0,0,3.54,0,2.51,2.51,0,0,0,0-3.53c-17.53-14.28-35.1-28.61-54.13-40.86-9.88-6.36-20.16-12.12-30.31-18l-15.34-8.94c-4.49-2.61-9.41-5.27-14.76-5.11s-10.34,3-12.06,8.23c-1.8,5.51.75,11.24.82,16.81,0,3.21,5,3.22,5,0Z" transform="translate(-40.18 -150.71)"/><path class="cls-1" d="M262.59,278.13c-2.07-2.11-3.73-4.57-6.12-6.37a15.4,15.4,0,0,0-7.79-2.86,29.44,29.44,0,0,0-8.27.5,16.61,16.61,0,0,0-8.32,3.49,8.88,8.88,0,0,0-3.13,7.36c.31,2.9,2.19,5.19,4.37,7,4.75,3.9,10.45,6.28,15.73,9.32A179.1,179.1,0,0,1,267,308.48a2.52,2.52,0,0,0,3.42-.9,2.55,2.55,0,0,0-.9-3.42c-4.51-3.37-9.16-6.57-13.94-9.53-4.55-2.83-9.36-5.14-14-7.8a29.12,29.12,0,0,1-5.91-4.18c-1.34-1.3-2.31-2.87-1.33-4.7s3.28-2.79,5.33-3.3a28.42,28.42,0,0,1,6.8-.87,11.63,11.63,0,0,1,7,1.93c2.19,1.6,3.71,4,5.6,6,2.26,2.3,5.79-1.24,3.53-3.54Z" transform="translate(-40.18 -150.71)"/><path class="cls-1" d="M255.24,300.56c1.54,1.19,1.19,3,.55,4.67-.27.69-.58,1.67-1.27,2-.85.46-2.33.29-3.25.36a76.34,76.34,0,0,1-14.81,0c-9.56-1.14-18.65-4.72-28.35-5-3.22-.08-3.22,4.92,0,5,8.52.21,16.62,3.12,25,4.49a64.41,64.41,0,0,0,13.38.74c2.24-.1,4.49-.26,6.73-.44s4.37-.68,5.79-2.65c2.57-3.54,3.72-9.77-.21-12.82a2.58,2.58,0,0,0-3.53,0,2.52,2.52,0,0,0,0,3.54Z" transform="translate(-40.18 -150.71)"/><path class="cls-1" d="M240.68,307.53c-10-1.71-19.1-6.31-27.43-12a119.94,119.94,0,0,1-11.91-9.16,35.81,35.81,0,0,1-5.18-5.48c-1.51-2.08-2.74-4.35-4.14-6.5-3.06-4.7-6.67-9.23-8.46-14.61-1-3-5.85-1.73-4.83,1.33,1.72,5.15,4.79,9.56,7.8,14s5.58,9.29,9.53,13.15a107.8,107.8,0,0,0,12.73,10.21,97.85,97.85,0,0,0,13.53,8.17,63.23,63.23,0,0,0,17,5.68,2.58,2.58,0,0,0,3.07-1.75,2.53,2.53,0,0,0-1.74-3.08Z" transform="translate(-40.18 -150.71)"/><path class="cls-1" d="M182.56,267.25c0-3.75-.19-7.49-.56-11.23a2.5,2.5,0,0,0-5,0c.37,3.74.55,7.48.56,11.23a2.5,2.5,0,0,0,5,0Z" transform="translate(-40.18 -150.71)"/><path class="cls-1" d="M184.69,264.33a27.74,27.74,0,0,1-.7-7.15,6.39,6.39,0,0,1,.18-2.21,5.15,5.15,0,0,1,1.12-.73c.48-.29,1-.57,1.48-.83,4.1-2.13,8.48-2.39,13-2.59,10.19-.46,20.37-1,30.56-1.36,5-.2,10.22-.14,14.37,3a2.5,2.5,0,0,0,3.42-.9,2.55,2.55,0,0,0-.9-3.42c-4.18-3.22-9.65-3.88-14.78-3.8-5.62.09-11.24.47-16.85.72l-17.06.77c-5.31.23-10.33,1-15,3.62a11.19,11.19,0,0,0-3.3,2.44,6.81,6.81,0,0,0-1.15,4,33.15,33.15,0,0,0,.82,9.68c.72,3.14,5.54,1.81,4.82-1.33Z" transform="translate(-40.18 -150.71)"/><path class="cls-1" d="M362.45,421c3.56.2,7.05.89,10.57,1.39a89.22,89.22,0,0,0,10.83.8c7.27.11,14.55,0,21.83,0h33.39a107.62,107.62,0,0,0,10.78-.26c7.85-.8,14.63-4.41,21.35-8.29,2.78-1.62.27-5.94-2.52-4.32-5.64,3.26-11.47,6.65-18,7.52a79.34,79.34,0,0,1-10.57.35H429.35c-14.51,0-29,.08-43.55,0a87.72,87.72,0,0,1-11.45-.65c-4-.54-7.89-1.34-11.9-1.56-3.21-.17-3.2,4.83,0,5Z" transform="translate(-40.18 -150.71)"/><path class="cls-1" d="M318.3,281.85c-5.78-.58-11.65-.89-17.05,1.66a2.51,2.51,0,0,0-.89,3.42,2.57,2.57,0,0,0,3.42.9,16,16,0,0,1,3.21-1l1.06-.19a1.63,1.63,0,0,1,.41-.05c.67-.06,1.35-.11,2-.13a60,60,0,0,1,7.81.42,2.51,2.51,0,0,0,2.5-2.5,2.57,2.57,0,0,0-2.5-2.5Z" transform="translate(-40.18 -150.71)"/><path class="cls-1" d="M309.87,285.49a123.06,123.06,0,0,1,15.2,1.54,42.61,42.61,0,0,1,7.1,1.37,20.26,20.26,0,0,1,5.65,3.49,2.52,2.52,0,0,0,3.42-.89,2.58,2.58,0,0,0-.9-3.43,24.57,24.57,0,0,0-6.43-3.85,38.16,38.16,0,0,0-7.51-1.51,132.88,132.88,0,0,0-16.53-1.72c-3.22-.08-3.22,4.92,0,5Z" transform="translate(-40.18 -150.71)"/><path class="cls-1" d="M228.32,248c1.8,1.93,4.51,2.31,7,2.7,2.79.44,5.6.76,8.42.93a2.53,2.53,0,0,0,2.5-2.5,2.56,2.56,0,0,0-2.5-2.5c-1.24-.08-2.47-.17-3.69-.3s-1.89-.22-3.14-.41c-1.09-.17-2.18-.33-3.25-.59l-.61-.17c-.14,0-.88-.41-.38-.12l-.54-.3c-.23-.16-.22-.16,0,0a2.65,2.65,0,0,1-.29-.29,2.53,2.53,0,0,0-3.54,0,2.56,2.56,0,0,0,0,3.54Z" transform="translate(-40.18 -150.71)"/><path class="cls-1" d="M279.88,242.08c-.65,2.19-2.14,4-3.05,6.11a20.21,20.21,0,0,0-1.72,7.35c-.09,2.53.32,5.07,2.16,6.94,1.62,1.64,3.85,2.46,5.94,3.3a76.1,76.1,0,0,0,7.33,2.48A11.13,11.13,0,0,0,294,269a5.46,5.46,0,0,0,3.7-2.16,82.72,82.72,0,0,0,8.54-11.41A150.76,150.76,0,0,1,315,242.49a2.57,2.57,0,0,0,0-3.54,2.54,2.54,0,0,0-3.54,0c-5.23,6.51-9.11,13.94-14.17,20.57-.56.73-1.14,1.44-1.74,2.14-.32.38-.65.76-1,1.12s-1,.8-1.16,1.24l-.15.14c.68-.1.81-.18.42-.24a2.3,2.3,0,0,0-.65-.17c-.53-.14-1.05-.28-1.58-.44-1.13-.32-2.24-.68-3.35-1.06a40.24,40.24,0,0,1-5.72-2.26,3.49,3.49,0,0,1-2.25-3.59,14.48,14.48,0,0,1,1.31-6.28c1.07-2.28,2.57-4.27,3.3-6.71.92-3.09-3.91-4.41-4.83-1.33Z" transform="translate(-40.18 -150.71)"/><path class="cls-1" d="M339.75,260.19c7.17,1.11,13.69,4.23,19.91,7.83a104.92,104.92,0,0,1,9.31,6,88.8,88.8,0,0,1,8.4,7.22c5.35,5,10.89,10.08,15.16,16.09,3.76,5.28,6.62,11.12,10.07,16.59a56.75,56.75,0,0,0,6.62,8.8c2.78,2.94,6.23,5.14,8.95,8.13,2.16,2.39,5.69-1.15,3.53-3.53-2.45-2.7-5.53-4.71-8.11-7.28a45.8,45.8,0,0,1-6-7.63c-3.59-5.54-6.49-11.5-10.25-16.94-4.26-6.16-9.63-11.35-15-16.47-2.84-2.69-5.7-5.38-8.79-7.79a90.58,90.58,0,0,0-9.35-6.31c-7.14-4.26-14.75-8.2-23.06-9.48a2.58,2.58,0,0,0-3.07,1.74,2.52,2.52,0,0,0,1.75,3.08Z" transform="translate(-40.18 -150.71)"/><path class="cls-1" d="M404.54,316.85a103.13,103.13,0,0,0,10.57,13.93A38.76,38.76,0,0,0,430,340.62a179.53,179.53,0,0,0,19.31,5.68,49.37,49.37,0,0,0,10.4,1.46c3.54.08,7.07-.19,10.6-.31a43.43,43.43,0,0,1,10.44.56,20.9,20.9,0,0,1,4.57,1.43c1.76.81,3.37,1.85,5.2,2.54a2.5,2.5,0,1,0,1.33-4.82c-1.33-.5-2.53-1.33-3.81-2a26,26,0,0,0-4.68-1.73,39.47,39.47,0,0,0-9.37-1.09c-6.54-.07-13.14,1-19.64-.12s-12.95-3.24-19.25-5.21c-5.58-1.74-10.53-4.08-14.81-8.14-4.52-4.27-8-9.45-11.47-14.59-1.78-2.66-6.12-.16-4.32,2.52Z" transform="translate(-40.18 -150.71)"/><path class="cls-1" d="M456.72,360.58c-14.86-3.23-30.15-4.82-44.57-9.88a70,70,0,0,1-18.63-9.64,65.48,65.48,0,0,1-13.41-13.9,137.26,137.26,0,0,1-11.62-19.7c-1.44-2.88-5.76-.35-4.32,2.52,6.16,12.34,13.52,24.64,24.35,33.46,11.51,9.39,25.87,13.91,40.22,16.87,8.85,1.83,17.81,3.17,26.65,5.09,3.13.69,4.47-4.13,1.33-4.82Z" transform="translate(-40.18 -150.71)"/><path class="cls-1" d="M369.79,309.81c-2.17-4.69-6.26-7.94-9.88-11.45-3.77-3.64-6.33-8.42-10.7-11.43s-10-4.07-15.25-4.77c-6.07-.8-12.19-1.4-18.31-1.6-6.38-.2-13.34.77-17.85,5.77-2.15,2.38,1.38,5.93,3.54,3.53,3.39-3.76,8.56-4.4,13.37-4.32a167.81,167.81,0,0,1,17.48,1.4c4.53.55,9.32,1.24,13.33,3.57,4.24,2.46,6.53,7,9.89,10.44,3.55,3.61,7.87,6.66,10.06,11.38a2.52,2.52,0,0,0,3.42.9,2.56,2.56,0,0,0,.9-3.42Z" transform="translate(-40.18 -150.71)"/><path class="cls-1" d="M193.42,486.61a22.67,22.67,0,0,0-1.42,9.92,2.56,2.56,0,0,0,2.5,2.5,2.53,2.53,0,0,0,2.5-2.5,21.37,21.37,0,0,1-.06-2.4c0-.34,0-.68.05-1s0-.45.07-.68c.05-.51-.09.54,0,0a21,21,0,0,1,1.18-4.47,2.49,2.49,0,0,0-1.75-3.07,2.56,2.56,0,0,0-3.07,1.74Z" transform="translate(-40.18 -150.71)"/></svg>