<svg id="Calque_1" data-name="Calque 1" xmlns="http://www.w3.org/2000/svg" viewBox="0 0 158.35 49.65"><defs><style>.cls-1,.cls-3{fill:#fff;}.cls-2{fill:#4a235d;}.cls-2,.cls-3{stroke:#1d1d1b;stroke-miterlimit:10;stroke-width:0.5px;}</style></defs><path class="cls-1" d="M270.57,509.23" transform="translate(-220.12 -183.68)"/><path class="cls-2" d="M265.58,223.56a27.33,27.33,0,0,0,.72,6.64,7.57,7.57,0,0,1-4.64,2.08,6.44,6.44,0,0,1-1.52-1.68,14.4,14.4,0,0,1-.32-4.16c0-7.12,3-17.68,4.32-23,.08-.4-.48-.64-.8-.32-12.88,13-17,20.72-17.28,24.4a10.65,10.65,0,0,1-3.92,2c-.64-.16-1.44-1.2-2.08-2.08.16-2.4.16-3.36.16-4.48,0-5.52-.72-16.8-1.44-20.48-.08-.4-.56-.24-.8.08-7,10.48-11.52,21.36-12.08,27.84a7,7,0,0,1-2.8,2.08,5.55,5.55,0,0,1-2.72-1.76c.72-5.12,6.08-15.44,8.88-20.08,4.08-7,7.68-12.8,8.08-15.52a8,8,0,0,1,3.44-2.08,9.49,9.49,0,0,1,2.64,1.76c.64,5.76,1.44,16.8,1.68,23.36,0,.48.64.4.8.24,4.72-6.56,15.28-16.48,19.6-23.92a8.91,8.91,0,0,1,4.16-1.44,7.06,7.06,0,0,1,1.6,3.6C269.26,202,265.66,216,265.58,223.56Z" transform="translate(-220.12 -183.68)"/><path class="cls-2" d="M283.1,207.24a6.18,6.18,0,0,1,1.36,1.52c-4.16,7.2-5.68,11.68-5.68,14.8,0,.72.16,1.52.72,1.52,1.76,0,8-5.52,15.2-16.8a9.83,9.83,0,0,1,4.32-1.76,4.68,4.68,0,0,1,1.76,1.52c-3.28,6.16-5.6,14.08-5.52,16.56,0,.88.24,1.44.72,1.44,1.2,0,3-1,5.44-2.88a4.34,4.34,0,0,1,.56,2.32c-2.48,2.4-7.76,5.84-10.16,5.84-1,0-1.92-.8-1.92-3,0-2.72,1-6.72,2.32-10.24.16-.48-.56-.4-.72-.32-7.92,9.28-13.6,13.52-16.4,13.52-1.36,0-2.32-1-2.32-3,0-4.8,3.6-13.52,6.72-19.6A12.6,12.6,0,0,1,283.1,207.24Z" transform="translate(-220.12 -183.68)"/><path class="cls-2" d="M312.06,224.76a55.13,55.13,0,0,0-3.2,6.32,13.48,13.48,0,0,1-3,1.52,5.25,5.25,0,0,1-2.64-1c3.12-7.28,5.92-15.28,6-18.24a10.44,10.44,0,0,0-.8-4.56,6,6,0,0,1,5.68-3,8.81,8.81,0,0,1,.4,3.28,28.78,28.78,0,0,1-1.52,7.6c-.24.48.48.56.64.4,6.56-8.56,11.92-13.6,14.16-13.6a10.52,10.52,0,0,1,3.6,1.92,9.63,9.63,0,0,1-.72,3.6,6.82,6.82,0,0,1-3.12,1.28,5.17,5.17,0,0,1-2.16-1.6C323.66,209.24,318.46,214.36,312.06,224.76Z" transform="translate(-220.12 -183.68)"/><path class="cls-2" d="M349.34,206.84c.8-.48,1.68-1,2.56-1.44a4.84,4.84,0,0,1,2.08,1.12C351.42,212,347.42,221,347.42,226c0,1.12.4,1.76,1,1.76.8,0,2.72-1.12,4.16-2.32a6.63,6.63,0,0,1,.64,2.24c-2.16,1.84-7.36,5.36-9.6,5.36-.64,0-1.52-.8-1.52-2.56a26.55,26.55,0,0,1,1.68-8.32c.08-.24-.4-.56-.72-.16-5.2,5.68-11,10.24-14.64,10.24-.88,0-1.84-1-1.84-3,0-5.92,3.92-14.48,13-21,2.16-1.52,5-3,6.64-3A8.12,8.12,0,0,1,349.34,206.84ZM332.7,225c0,.8.08,1.36.64,1.36,2.56,0,8.8-5.44,13.76-15.36-.48-1-2.08-2.32-2.72-2.32C341.34,208.68,332.7,218.2,332.7,225Z" transform="translate(-220.12 -183.68)"/><path class="cls-2" d="M374.06,190.36a4.89,4.89,0,0,1,1.92,1.92,148.72,148.72,0,0,0-7,13.84c2.16,0,6.32-.08,9.2-.32a5.44,5.44,0,0,1-1.28,2.4,65.84,65.84,0,0,1-9.52,1.52c-3.76,9.12-5.12,13.44-5.12,15.76,0,1.28.24,1.76.8,1.76,1.52-.08,4.56-1.76,8.4-4.72a4.92,4.92,0,0,1,.72,2.72c-5,3.6-10.88,7.28-13.44,7.28-1.2,0-2.16-1.36-2.16-3.44,0-3,2.08-10,6-19-1.68,0-4.16.08-5.6.08a4.86,4.86,0,0,1,1.2-2.4c1.76-.48,3.68-.72,5.92-1.2,2.08-4.56,5.44-12.72,5.2-13.92A12.42,12.42,0,0,1,374.06,190.36Z" transform="translate(-220.12 -183.68)"/><polygon class="cls-3" points="118.22 21.7 119.59 22.24 121.44 21.97 123.07 21.35 125.31 21.12 128.21 21.12 129.58 21.41 131.27 21.92 133.57 22.24 134.66 21.68 134.66 17.58 136.32 17.58 138.74 16.21 139.92 14.52 140.47 12.66 140.31 10.4 139.35 8.39 137.37 6.79 135.81 6.25 134.24 6.25 133.51 4.4 132.26 2.68 130.22 1.18 127.51 0.25 124.95 0.25 122.98 1.02 120.77 2.36 119.31 4.37 118.64 6.09 118.22 6.38 116.27 6.47 114.61 7.24 113.4 8.39 112.54 10.05 112.25 11.48 112.25 12.89 112.67 14.45 113.5 15.57 114.45 16.56 115.38 17.16 117.9 17.74 117.87 21.25 118.22 21.7"/><polygon class="cls-3" points="123.2 16.3 123.84 16.69 123.84 19.91 123.2 20.2 122.47 19.75 122.47 16.75 123.2 16.3"/><polygon class="cls-3" points="126.36 15.28 126.77 15.6 126.93 16.08 126.93 18.79 126.36 19.05 125.69 18.73 125.69 15.73 126.36 15.28"/><polygon class="cls-3" points="129.39 16.3 129.97 16.72 130.16 17.48 130.16 19.88 129.39 20.2 128.78 19.72 128.78 16.88 129.39 16.3"/><polygon class="cls-3" points="129.84 2.61 127.32 2.61 125.47 3.19 123.84 3.89 122.78 4.94 121.57 6.73 120.9 8.16 120.52 9.63 120.52 11.77 119.78 10.85 119.53 9.06 119.69 6.76 120.26 4.94 121.25 3.57 123.61 2.04 125.37 1.43 127.38 1.43 128.78 1.81 129.47 2.23 129.84 2.61"/><polygon class="cls-3" points="113.98 14.26 114.3 11.77 115.19 10.21 116.59 9.06 118.28 8.23 118.28 7.24 116.69 7.4 115.32 8.13 114.17 9.12 113.5 10.3 113.24 11.77 113.37 12.95 113.98 14.26"/></svg>