<?xml version="1.0" encoding="utf-8"?>
<!-- Generator: Adobe Illustrator 26.0.1, SVG Export Plug-In . SVG Version: 6.00 Build 0)  -->
<svg version="1.1" id="Calque_1" xmlns="http://www.w3.org/2000/svg" xmlns:xlink="http://www.w3.org/1999/xlink" x="0px" y="0px"
	 viewBox="0 0 158.4 49.7" style="enable-background:new 0 0 158.4 49.7;" xml:space="preserve">
<style type="text/css">
	.st0{fill:#FFFFFF;}
	.st1{fill:#CC9932;stroke:#1D1D1B;stroke-width:0.5;stroke-miterlimit:10;}
	.st2{fill:#FFFFFF;stroke:#1D1D1B;stroke-width:0.5;stroke-miterlimit:10;}
</style>
<path class="st0" d="M50.5,325.6"/>
<path class="st1" d="M45.5,39.9c0,2.2,0.2,4.5,0.7,6.6c-1.3,1.2-2.9,1.9-4.6,2.1c-0.6-0.5-1.1-1-1.5-1.7c-0.3-1.4-0.4-2.8-0.3-4.2
	c0-7.1,3-17.7,4.3-23c0.1-0.4-0.5-0.6-0.8-0.3c-12.9,13-17,20.7-17.3,24.4c-1.2,0.9-2.5,1.6-3.9,2c-0.6-0.2-1.4-1.2-2.1-2.1
	c0.2-2.4,0.2-3.4,0.2-4.5c0-5.5-0.7-16.8-1.4-20.5c-0.1-0.4-0.6-0.2-0.8,0.1c-7,10.5-11.5,21.4-12.1,27.8C5,47.6,4.1,48.4,3,48.8
	c-1.1-0.3-2-0.9-2.7-1.8C1,41.9,6.3,31.6,9.1,27c4.1-7,7.7-12.8,8.1-15.5c1-1,2.1-1.7,3.4-2.1c1,0.4,1.9,1,2.6,1.8
	c0.6,5.8,1.4,16.8,1.7,23.4c0,0.5,0.6,0.4,0.8,0.2c4.7-6.6,15.3-16.5,19.6-23.9c1.2-0.8,2.7-1.3,4.2-1.4c0.9,1,1.4,2.3,1.6,3.6
	C49.1,18.3,45.5,32.3,45.5,39.9z"/>
<path class="st1" d="M63,23.6c0.5,0.4,1,0.9,1.4,1.5c-4.2,7.2-5.7,11.7-5.7,14.8c0,0.7,0.2,1.5,0.7,1.5c1.8,0,8-5.5,15.2-16.8
	c1.3-0.9,2.8-1.5,4.3-1.8c0.7,0.4,1.3,0.9,1.8,1.5c-3.3,6.2-5.6,14.1-5.5,16.6c0,0.9,0.2,1.4,0.7,1.4c1.2,0,3-1,5.4-2.9
	c0.4,0.7,0.6,1.5,0.6,2.3c-2.5,2.4-7.8,5.8-10.2,5.8c-1,0-1.9-0.8-1.9-3c0-2.7,1-6.7,2.3-10.2c0.2-0.5-0.6-0.4-0.7-0.3
	C63.5,43.4,57.8,47.6,55,47.6c-1.4,0-2.3-1-2.3-3c0-4.8,3.6-13.5,6.7-19.6C60.5,24.3,61.7,23.9,63,23.6z"/>
<path class="st1" d="M91.9,41.1c-1.2,2-2.3,4.1-3.2,6.3c-0.9,0.6-1.9,1.1-3,1.5c-1-0.1-1.9-0.4-2.6-1c3.1-7.3,5.9-15.3,6-18.2
	c0.1-1.6-0.2-3.1-0.8-4.6c1.2-2,3.4-3.2,5.7-3c0.3,1.1,0.5,2.2,0.4,3.3c-0.2,2.6-0.7,5.1-1.5,7.6c-0.2,0.5,0.5,0.6,0.6,0.4
	c6.6-8.6,11.9-13.6,14.2-13.6c1.3,0.4,2.5,1.1,3.6,1.9c0,1.2-0.3,2.5-0.7,3.6c-0.9,0.7-2,1.1-3.1,1.3c-0.8-0.3-1.6-0.9-2.2-1.6
	C103.5,25.6,98.3,30.7,91.9,41.1z"/>
<path class="st1" d="M129.2,23.2c0.8-0.5,1.7-1,2.6-1.4c0.8,0.2,1.5,0.6,2.1,1.1c-2.6,5.5-6.6,14.5-6.6,19.5c0,1.1,0.4,1.8,1,1.8
	c0.8,0,2.7-1.1,4.2-2.3c0.3,0.7,0.6,1.5,0.6,2.2c-2.2,1.8-7.4,5.4-9.6,5.4c-0.6,0-1.5-0.8-1.5-2.6c0.1-2.8,0.7-5.7,1.7-8.3
	c0.1-0.2-0.4-0.6-0.7-0.2c-5.2,5.7-11,10.2-14.6,10.2c-0.9,0-1.8-1-1.8-3c0-5.9,3.9-14.5,13-21c2.2-1.5,5-3,6.6-3
	C127.2,21.9,128.3,22.4,129.2,23.2z M112.6,41.3c0,0.8,0.1,1.4,0.6,1.4c2.6,0,8.8-5.4,13.8-15.4c-0.5-1-2.1-2.3-2.7-2.3
	C121.2,25,112.6,34.5,112.6,41.3z"/>
<path class="st1" d="M153.9,6.7c0.8,0.4,1.5,1.1,1.9,1.9c-2.6,4.5-4.9,9.1-7,13.8c2.2,0,6.3-0.1,9.2-0.3c-0.2,0.9-0.7,1.7-1.3,2.4
	c-3.1,0.7-6.3,1.2-9.5,1.5c-3.8,9.1-5.1,13.4-5.1,15.8c0,1.3,0.2,1.8,0.8,1.8c1.5-0.1,4.6-1.8,8.4-4.7c0.5,0.8,0.7,1.8,0.7,2.7
	c-5,3.6-10.9,7.3-13.4,7.3c-1.2,0-2.2-1.4-2.2-3.4c0-3,2.1-10,6-19c-1.7,0-4.2,0.1-5.6,0.1c0.2-0.9,0.6-1.7,1.2-2.4
	c1.8-0.5,3.7-0.7,5.9-1.2c2.1-4.6,5.4-12.7,5.2-13.9C150.6,7.9,152.2,7.1,153.9,6.7z"/>
<polygon class="st2" points="118.2,21.7 119.6,22.2 121.4,22 123.1,21.3 125.3,21.1 128.2,21.1 129.6,21.4 131.3,21.9 133.6,22.2 
	134.7,21.7 134.7,17.6 136.3,17.6 138.7,16.2 139.9,14.5 140.5,12.7 140.3,10.4 139.4,8.4 137.4,6.8 135.8,6.2 134.2,6.2 133.5,4.4 
	132.3,2.7 130.2,1.2 127.5,0.2 124.9,0.2 123,1 120.8,2.4 119.3,4.4 118.6,6.1 118.2,6.4 116.3,6.5 114.6,7.2 113.4,8.4 112.5,10 
	112.2,11.5 112.2,12.9 112.7,14.4 113.5,15.6 114.4,16.6 115.4,17.2 117.9,17.7 117.9,21.2 "/>
<polygon class="st2" points="123.2,16.3 123.8,16.7 123.8,19.9 123.2,20.2 122.5,19.7 122.5,16.7 "/>
<polygon class="st2" points="126.4,15.3 126.8,15.6 126.9,16.1 126.9,18.8 126.4,19 125.7,18.7 125.7,15.7 "/>
<polygon class="st2" points="129.4,16.3 130,16.7 130.2,17.5 130.2,19.9 129.4,20.2 128.8,19.7 128.8,16.9 "/>
<polygon class="st2" points="129.8,2.6 127.3,2.6 125.5,3.2 123.8,3.9 122.8,4.9 121.6,6.7 120.9,8.2 120.5,9.6 120.5,11.8 
	119.8,10.8 119.5,9.1 119.7,6.8 120.3,4.9 121.2,3.6 123.6,2 125.4,1.4 127.4,1.4 128.8,1.8 129.5,2.2 "/>
<polygon class="st2" points="114,14.3 114.3,11.8 115.2,10.2 116.6,9.1 118.3,8.2 118.3,7.2 116.7,7.4 115.3,8.1 114.2,9.1 
	113.5,10.3 113.2,11.8 113.4,12.9 "/>
</svg>
