<svg id="Calque_1" data-name="Calque 1" xmlns="http://www.w3.org/2000/svg" xmlns:xlink="http://www.w3.org/1999/xlink" viewBox="0 0 456.52 419.82"><defs><style>.cls-1{opacity:0.5;}.cls-2{fill:url(#Dégradé_sans_nom_130);}.cls-3{fill:url(#Dégradé_sans_nom_130-2);}.cls-4{fill:url(#Dégradé_sans_nom_130-3);}.cls-5{fill:url(#Dégradé_sans_nom_130-4);}</style><linearGradient id="Dégradé_sans_nom_130" x1="80.45" y1="451.32" x2="524.13" y2="451.32" gradientUnits="userSpaceOnUse"><stop offset="0" stop-color="#fff"/><stop offset="0.13" stop-color="#fbfbfb"/><stop offset="0.26" stop-color="#f0f0f0"/><stop offset="0.38" stop-color="#dcdcdc"/><stop offset="0.51" stop-color="#c1c1c1"/><stop offset="0.63" stop-color="#9e9e9e"/><stop offset="0.75" stop-color="#737373"/><stop offset="0.87" stop-color="#404040"/><stop offset="0.99" stop-color="#070707"/><stop offset="1"/></linearGradient><linearGradient id="Dégradé_sans_nom_130-2" x1="210.3" y1="75.37" x2="331.49" y2="75.37" xlink:href="#Dégradé_sans_nom_130"/><linearGradient id="Dégradé_sans_nom_130-3" x1="334.98" y1="323.09" x2="334.98" y2="323.09" xlink:href="#Dégradé_sans_nom_130"/><linearGradient id="Dégradé_sans_nom_130-4" x1="335.74" y1="325.14" x2="335.74" y2="325.14" xlink:href="#Dégradé_sans_nom_130"/></defs><g class="cls-1"><path class="cls-2" d="M80.45,414.09l29.73,24,30.3,30.64,36.42,40,17.7,31.65,15.32,32,28.26,34,3.74-4.09V589l-6.81-13.28L229,551.58l-.34-35.41,13.27-22.12,30.64-21.79,36.09-9.87,52.08-1H390l19.74,5.44L436,470.56l32.69.68,22.8-7.49,16-14.64,11.92-15v-4.08l4.76-16-3.06-13-4.76-4.77-9.2-3.4H488.05L468,387.49l-14.29-8.85L437,358.9l-9.2-18L415.2,328.6l-18-13.62-12.26-6.12-19.06-2.39H331.11L325.67,315l10.21,8.17,3.06,12.26-15-11.92L308.31,312.6,281.41,300l-12.59-3.74H249.07L223.54,298l-5.11,2.73.34,11.23,9.54,13.28,20.08,17.7,25.53,12.25,17,1,2.73-8.17L279,340.17l-14.3-15,5.11-6.17,17-3.37L302.29,319l18.27,11.61,16.68,9.53,5.11.35-3.07-15.32,10.9,3.74,17.36.68,16.34,4.09,10.21,8.85,9.53,11.91,9.2,15.32,16,19.41,26.55,11.23L485,405.2l22.46,1.36,5.11,2,1,5.79-2.38,13.27S502,437.54,501,437.54s-11.24,9.19-11.24,9.19l-16,2.38H418.6L397.5,445l-28.26-6.13-23.15-4.43-27.57-3.74-26.9-.68-19.4,3.06-13.28,6.13L248.05,445l-12.94,7.83-16.34,16.68-8.51,11.57-6.47,14.64L191.2,476.34l-19.75-16.68-13.61-10.55-15.66-10.55-18.73-11.92-14.29-7.49L95.54,410l-8.17-.34Z" transform="translate(-72.77 -197.38)"/><polygon class="cls-3" points="210.29 103.85 236.73 61.57 260.56 31.99 276.94 16.22 284.76 12.49 290.53 12.49 292.21 15.12 288.48 20.38 275.82 34.18 264.47 51.49 255.91 64.42 248.83 78.44 242.87 90.49 239.71 100.78 239.15 110.42 243.99 112.61 249.57 114.36 255.53 118.97 267.26 106.04 281.41 90.49 292.21 83.26 305.24 76.03 314.55 70.99 322.55 66.83 328.69 67.48 331.49 68.58 324.79 74.28 315.29 81.72 303 91.8 292.02 102.75 284.2 111.96 276.75 121.81 274.52 126.2 268 138.25 254.42 138.25 237.66 132.86 225.93 127.51 217.18 117.43 210.29 103.85"/><path class="cls-4" d="M335,323.09" transform="translate(-72.77 -197.38)"/><path class="cls-5" d="M335.74,325.14" transform="translate(-72.77 -197.38)"/></g><path d="M345.67,335.67c-2.65-.06-4.95,1.2-7.45,1.87a22.45,22.45,0,0,1-7.66.63L333,340l-.1-.25v1.33c-.24.85-.49.59.36.37a9.23,9.23,0,0,1,1-.21c.77-.1,1.56-.11,2.33-.18a10.61,10.61,0,0,0,5.3-1.57,2.51,2.51,0,0,0-1.93-4.57c-6.07.91-12.15,2-18.28,2.38a2.5,2.5,0,0,0,0,5c6.58-.42,13.1-1.59,19.61-2.56l-1.93-4.57c-1.73,1.21-4.08.92-6.08,1.2-2.26.32-6.41,1.87-5.12,4.95a2.66,2.66,0,0,0,2.41,1.84,26.78,26.78,0,0,0,8.13-.6c2.29-.52,4.61-1.95,7-1.9,3.22.08,3.22-4.92,0-5Z" transform="translate(-72.77 -197.38)"/><path d="M333,303.49A9.11,9.11,0,0,0,328,307.2a8.13,8.13,0,0,0-1.14,2.59c-.09.38-.13.78-.21,1.17l-.06.27c0,.1-.17.49,0,.08s-.19.16.13-.2,0,0-.08,0a2.5,2.5,0,0,0-.19,3.28,2.54,2.54,0,0,0,3.22.64c2.47-1.1,3.29-3.76,4.65-5.85.1-.17.46-.52.48-.7l-.11.14.1-.12.3-.35a11.31,11.31,0,0,1,1.31-1.28c.12-.1.25-.19.36-.3l-.26.21.25-.18c.25-.18.5-.35.77-.51s.48-.29.73-.42l.42-.2c.15-.07.73-.32,0,0a2.78,2.78,0,0,0,1.5-1.15,2.51,2.51,0,0,0-.9-3.42,2.43,2.43,0,0,0-1.93-.25,17,17,0,0,0-4,2.32,15.79,15.79,0,0,0-2.92,3.08,27.55,27.55,0,0,0-1.75,3c-.14.25-.28.49-.43.73a4,4,0,0,0-.23.34c-.15.21.41-.49,0-.08l-.27.29c-.07.07-.46.37-.1.11s-.05,0-.13.07a2.74,2.74,0,0,1-.42.21l3,3.93a4.59,4.59,0,0,0,1.36-2.81,8.3,8.3,0,0,1,.24-1.1,1.34,1.34,0,0,1,.09-.26c.09-.25.06-.18-.1.2.1-.15.16-.34.25-.5s.19-.33.29-.49l.17-.23c-.25.32-.3.38-.13.17a9.94,9.94,0,0,1,.8-.79q.3-.25-.18.12l.24-.16a5.55,5.55,0,0,1,.48-.29l.25-.13c.24-.11.17-.08-.21.08a4.72,4.72,0,0,0,.53-.18,2.5,2.5,0,1,0-1.33-4.82Z" transform="translate(-72.77 -197.38)"/><path d="M343.35,330c-1.06,1.9-3.58,2.17-5.52,2.54-2.53.48-4.94,1.74-7.53,1.85a74.31,74.31,0,0,0-8,.52,30.11,30.11,0,0,1-8.25.54v5c3-.27,6,.24,9,.06a14.86,14.86,0,0,0,4.52-.88c1.39-.54,2.64-1.34,4-2,4.94-2.22,10.56-2.08,15.29-4.92,2.76-1.66.24-6-2.52-4.32-4.35,2.61-9.7,2.58-14.33,4.51-1.24.52-2.37,1.2-3.58,1.78a9.3,9.3,0,0,1-3.6.8c-2.92.14-5.83-.33-8.75-.07a2.5,2.5,0,0,0,0,5c3.14.39,6.25-.21,9.34-.68s6-.13,8.94-.58a29.88,29.88,0,0,0,4.25-1.22c1.36-.42,2.76-.61,4.14-.91,2.81-.62,5.54-1.94,7-4.54,1.56-2.82-2.76-5.34-4.32-2.52Z" transform="translate(-72.77 -197.38)"/><path d="M345.1,327.48c-15.18,4.37-31.23,4.09-46.73,1.58a2.58,2.58,0,0,0-3.08,1.74,2.53,2.53,0,0,0,1.75,3.08c16.39,2.65,33.31,3.05,49.39-1.58,3.09-.89,1.78-5.72-1.33-4.82Z" transform="translate(-72.77 -197.38)"/><path d="M351.62,283.86a57.78,57.78,0,0,1-5.83,5.88c-2.07,2-3.91,4.23-5.81,6.4-4,4.61-8,9.21-12,13.87l4.18,2.43a2.24,2.24,0,0,1,1-1.09c.81-.61,1.65-1.17,2.43-1.82a22.88,22.88,0,0,0,4-4.63c2.26-3.26,5.36-5.91,8.21-8.63,5.88-5.61,12-11,19.2-14.87,2.83-1.53.31-5.85-2.53-4.32-7.67,4.14-14.25,10-20.52,16-3.14,3-6.32,5.92-8.8,9.5a15.89,15.89,0,0,1-3.92,4.09c-1.67,1.2-3.28,2.39-3.83,4.48-.6,2.28,2.5,4.42,4.18,2.44,4.05-4.79,8.18-9.5,12.3-14.23,1.89-2.17,3.74-4.38,5.83-6.37a57.24,57.24,0,0,0,6.27-6.57A2.51,2.51,0,0,0,355,283a2.56,2.56,0,0,0-3.42.9Z" transform="translate(-72.77 -197.38)"/><path d="M364.28,281.27c12.32-8.72,25.64-15.87,38.93-23a2.52,2.52,0,0,0,.89-3.42,2.56,2.56,0,0,0-3.42-.89,319.59,319.59,0,0,0-41.2,23.44,2.53,2.53,0,0,0-1,3.12A2.48,2.48,0,0,0,361.4,282c15.4-5.94,29.45-14.73,44.58-21.24,2.58-1.1.71-5.63-1.92-4.57a259.8,259.8,0,0,0-43.15,22.28l2.52,4.31a338.2,338.2,0,0,1,33.72-19.12c2.5-1.23.72-5.64-1.92-4.57-5.54,2.25-10.66,5.41-15.86,8.33s-10.75,5.73-15.78,9.1a2.5,2.5,0,0,0,2.52,4.31c3-1.42,6.15-2.69,9-4.38s5.11-4.08,7.82-5.91a124.55,124.55,0,0,1,17.57-9.5,2.52,2.52,0,0,0,.9-3.42,2.55,2.55,0,0,0-3.42-.89,123,123,0,0,0-17.57,9.5c-2.65,1.78-4.91,4.14-7.64,5.79-2.9,1.75-6.13,3-9.19,4.5l2.52,4.31c4.9-3.27,10.22-6,15.36-8.86,4.93-2.77,9.83-5.92,15.09-8.06l-1.93-4.57a337.16,337.16,0,0,0-33.72,19.13c-2.7,1.74-.2,6.06,2.52,4.31a254,254,0,0,1,42-21.76l-1.93-4.57c-14.74,6.33-28.4,14.95-43.39,20.73l1.93,4.57a321,321,0,0,1,41.21-23.45L400.68,254c-13.29,7.11-26.61,14.25-38.92,23a2.56,2.56,0,0,0-.9,3.42,2.51,2.51,0,0,0,3.42.89Z" transform="translate(-72.77 -197.38)"/><path d="M316.27,304.94c1.22-3.69,2.36-7.41,3.68-11.07a47.65,47.65,0,0,1,5.19-9.93,140.93,140.93,0,0,1,13.17-16.28c4.82-5.34,9.7-10.63,14.08-16.34a108.59,108.59,0,0,0,11.32-19.09c1.94-4,3.91-8,6.21-11.78s4.87-7.5,7.43-11.16a2.53,2.53,0,0,0-.4-3,2.6,2.6,0,0,0-3-.39c-3.47,1.63-6.4,4.73-9.16,7.35s-5.36,5.29-7.88,8.08a187.08,187.08,0,0,0-14.3,18.06,305.42,305.42,0,0,0-23.41,40c-4.08,8.24-7.49,16.92-7.93,26.21-.15,3.22,4.85,3.21,5,0,.36-7.67,3.07-15,6.36-21.86s6.9-13.48,10.63-20.05c7.29-12.83,15.37-25.29,25.06-36.45,2.75-3.16,5.62-6.22,8.62-9.14q2.22-2.16,4.53-4.22a21.55,21.55,0,0,1,5-3.69L373,206.76A155.6,155.6,0,0,0,360.72,227c-3.39,6.9-6.69,13.74-11.25,20C341,258.44,330.22,268,322,279.64a56.94,56.94,0,0,0-6.25,11.21c-1.68,4.15-2.93,8.51-4.33,12.76-1,3.07,3.82,4.38,4.82,1.33Z" transform="translate(-72.77 -197.38)"/><path d="M325.67,237.69c.42-3.13,3-5.69,5.19-7.73,2.75-2.57,5.66-5,8.63-7.31a92,92,0,0,1,9.28-6.39c3.3-2,6.83-4,10.62-4.91a26.42,26.42,0,0,1,6.47-.28,33.24,33.24,0,0,0,7.12-.39c2.75-.51,2.15-5.13-.66-4.91A81.1,81.1,0,0,0,328,223.16l4.18,1.11c-.4.91-.43,1.18-.1.82a2.44,2.44,0,0,1,.29-.27c.27-.24.55-.48.84-.7.53-.4,1.08-.78,1.64-1.14,1.22-.81,2.5-1.53,3.79-2.23q3.86-2.07,7.79-4c5.18-2.53,10.66-4.81,16.44-5.44a2.58,2.58,0,0,0,2.5-2.5,2.51,2.51,0,0,0-2.5-2.5c-7.18.78-13.77,3.53-20.18,6.73-3.06,1.52-6.14,3-9.07,4.79a36.65,36.65,0,0,0-4.28,3c-1.4,1.14-2.72,2.83-2,4.74a2.55,2.55,0,0,0,4.18,1.1,75.21,75.21,0,0,1,40.77-15.93l-.67-4.91c-4.26.79-8.63-.23-12.92.53s-8.12,3-11.73,5.11a112.79,112.79,0,0,0-19.68,14.92c-3.34,3.11-6,6.65-6.65,11.27a2.52,2.52,0,0,0,2.5,2.5,2.57,2.57,0,0,0,2.5-2.5Z" transform="translate(-72.77 -197.38)"/><path d="M377.16,210.38c3.21,0,3.22-5,0-5s-3.23,5,0,5Z" transform="translate(-72.77 -197.38)"/><path d="M351.79,202.38c3.22,0,3.23-5,0-5s-3.22,5,0,5Z" transform="translate(-72.77 -197.38)"/><path d="M322.09,208.22A112.55,112.55,0,0,1,305.68,226a2.5,2.5,0,0,0,3.54,3.54,118.38,118.38,0,0,0,17.18-18.75,2.51,2.51,0,0,0-.89-3.42,2.55,2.55,0,0,0-3.42.9Z" transform="translate(-72.77 -197.38)"/><path d="M302,235.9c3.88.35,7.84.52,11.48-1.12a22.51,22.51,0,0,0,5-3.56,18.2,18.2,0,0,1,4.57-2.76c3.43-1.46,7.11-2.23,10.55-3.67a19,19,0,0,0,8.72-6.71c1.79-2.68-2.54-5.19-4.32-2.52-1.65,2.45-4.42,3.94-7.12,5-3.38,1.28-6.92,2.11-10.25,3.56a21.77,21.77,0,0,0-4.69,2.79,33.52,33.52,0,0,1-4,3.12c-2.94,1.67-6.66,1.19-9.88.9a2.53,2.53,0,0,0-2.5,2.5,2.55,2.55,0,0,0,2.5,2.5Z" transform="translate(-72.77 -197.38)"/><path d="M345,215.83c3.21,0,3.22-5,0-5s-3.23,5,0,5Z" transform="translate(-72.77 -197.38)"/><path d="M363.34,207.25c-4.12-.58-7.87.45-11.59,2.19a80,80,0,0,0-9.51,5.37,61.78,61.78,0,0,0-15.87,14.32h4.32c.15.28,0,.32.17.11s.37-.52.58-.76c.49-.52,1-1,1.52-1.51,1.19-1.14,2.43-2.23,3.72-3.24a50.64,50.64,0,0,1,7.95-5l-3-3.92c-6.17,6-12.25,12.25-17.86,18.83-2.61,3.06-4.57,6.63-7.48,9.43s-6.07,5-8.85,7.8a51.44,51.44,0,0,0-8.26,10.82c-1.61,2.79,2.71,5.31,4.31,2.52a46.76,46.76,0,0,1,6.87-9.19c2.7-2.79,5.82-5.07,8.68-7.68s4.92-6,7.42-9.15,5.54-6.3,8.4-9.34q5-5.37,10.31-10.51c2.08-2-.56-5.2-3-3.92a55,55,0,0,0-10.29,6.91c-2.86,2.41-7.74,6.15-5.45,10.38,1,1.81,3.25,1.4,4.32,0a54.45,54.45,0,0,1,13.72-12.31,93.08,93.08,0,0,1,8.2-4.77c2.82-1.46,6.14-3,9.4-2.51a2.6,2.6,0,0,0,3.08-1.75c.32-1.17-.41-2.89-1.75-3.07Z" transform="translate(-72.77 -197.38)"/><path d="M364.62,282.25c2.1-.28,3.63-1.81,5.17-3.11s3.7-1.5,5.35-2.64c1.92-1.33,3.65-2.92,5.58-4.25a63,63,0,0,1,6.5-3.92c2.85-1.49.33-5.81-2.52-4.32a64.19,64.19,0,0,0-6.18,3.69c-1.94,1.33-3.73,2.85-5.61,4.27-1.65,1.24-3.77,1.46-5.44,2.68-1.47,1.06-2.59,2.56-4.18,2.78-1.34.18-2.07,1.9-1.74,3.07a2.56,2.56,0,0,0,3.07,1.75Z" transform="translate(-72.77 -197.38)"/><path d="M378.87,267c-5.56,3.7-10.48,8.35-16.49,11.35a2.5,2.5,0,0,0,2.52,4.32c6-3,10.94-7.65,16.49-11.35a2.56,2.56,0,0,0,.9-3.42,2.54,2.54,0,0,0-3.42-.9Z" transform="translate(-72.77 -197.38)"/><path d="M244.83,491.07a38.36,38.36,0,0,0-13.24,14.79A69.13,69.13,0,0,0,224.71,526c-1.48,8.36-.49,16.74,1.07,25,.74,4,1.46,8,2.53,11.89a52,52,0,0,0,4.82,11.25c4.62,8.37,9.36,16.68,14,25,1.58,2.81,5.9.29,4.32-2.52L239.43,575.2a77.9,77.9,0,0,1-5.15-10,72.94,72.94,0,0,1-2.89-11.4c-1.55-7.66-3-15.46-2.27-23.31A60.5,60.5,0,0,1,234.61,511c2.87-6.19,6.9-11.92,12.75-15.59,2.72-1.71.21-6-2.53-4.32Z" transform="translate(-72.77 -197.38)"/><path d="M248,495.33c6.59-3,11.76-8.38,17.91-12.14,6.42-3.94,13.36-6.91,20.27-9.87,2.6-1.12.74-5.44-1.93-4.57-8,2.59-16.09,5.26-23.2,9.87-3.58,2.33-6.95,5-10.36,7.55l-11.12,8.37a2.58,2.58,0,0,0-.89,3.42,2.53,2.53,0,0,0,3.42.9c6.68-3.84,13.43-7.58,20.05-11.53a82.7,82.7,0,0,0,9-6.14c2.74-2.18,5.13-4.87,8.18-6.64a50.48,50.48,0,0,1,9.51-3.88q5.24-1.76,10.61-3a123,123,0,0,1,45.28-2.16,2.58,2.58,0,0,0,3.07-1.74c.32-1.18-.4-2.89-1.74-3.08a129,129,0,0,0-44.8,1.46,114.18,114.18,0,0,0-21.22,6.53,32.69,32.69,0,0,0-9,6.07,64.77,64.77,0,0,1-8.52,6.5c-7.46,4.75-15.32,8.93-23,13.33l2.53,4.32,10.72-8.08c3.41-2.57,6.79-5.23,10.36-7.58,6.88-4.53,14.63-7.12,22.4-9.63L283.66,469c-6.9,3-13.84,5.94-20.27,9.87-6.14,3.76-11.32,9.13-17.9,12.14a2.52,2.52,0,0,0-.9,3.42,2.57,2.57,0,0,0,3.42.9Z" transform="translate(-72.77 -197.38)"/><path d="M344.13,465.23c8.56.45,17.13.89,25.7.85,4.16,0,8.3-.26,12.46-.4a58,58,0,0,1,12,.91,110.8,110.8,0,0,1,13.7,3.35c3.08,1,4.39-3.86,1.33-4.82-7.9-2.47-16.37-4.47-24.68-4.49-4.3,0-8.59.37-12.89.43s-8.56,0-12.85-.15c-4.94-.17-9.88-.42-14.82-.68-3.21-.17-3.2,4.83,0,5Z" transform="translate(-72.77 -197.38)"/><path d="M404.82,470.28q20.19,2,40.48,2.61,9.9.3,19.8.28c6.23,0,12.68.07,18.7-1.78,6.44-2,11.38-6.66,17.51-9.24a2.52,2.52,0,0,0,.9-3.42,2.57,2.57,0,0,0-3.42-.9c-5.17,2.18-9.4,6.14-14.63,8.16-5.59,2.15-11.67,2.15-17.58,2.18q-19.79.09-39.57-1.12-11.11-.68-22.19-1.77a2.52,2.52,0,0,0-2.5,2.5,2.55,2.55,0,0,0,2.5,2.5Z" transform="translate(-72.77 -197.38)"/><path d="M238.9,584.18c.81.8.9,2.18,1.11,3.25.32,1.68.62,3.36.89,5.05s.49,3.26.69,4.9a10.57,10.57,0,0,1,.12,4.19,6.65,6.65,0,0,1-2.29,2.71q-1.72,1.51-3.54,2.93a76.09,76.09,0,0,1-7.89,5.31c-2.77,1.64-.26,6,2.52,4.32a84.81,84.81,0,0,0,9.18-6.31c2.67-2.1,6.19-4.49,6.93-8a15.88,15.88,0,0,0-.06-5.37c-.25-2-.52-4-.84-6s-.64-3.86-1-5.77a8.86,8.86,0,0,0-2.25-4.74c-2.29-2.26-5.83,1.27-3.54,3.54Z" transform="translate(-72.77 -197.38)"/><path d="M239.77,606.36a30.59,30.59,0,0,1-7.06-2.07,2.58,2.58,0,0,0-3.42.9,2.54,2.54,0,0,0,.9,3.42,20.73,20.73,0,0,0,4.6,2.21,16.36,16.36,0,0,0,2.16.57,7.13,7.13,0,0,0,3.14.25,2.84,2.84,0,0,0,2.1-2.67,3.78,3.78,0,0,0-1.1-2.52,7.38,7.38,0,0,0-3.92-2,17.22,17.22,0,0,1-7.26-3.53,51,51,0,0,1-6.77-7.24,2.52,2.52,0,0,0-3.53,0,2.55,2.55,0,0,0,0,3.54,44.13,44.13,0,0,0,9,8.94,20.66,20.66,0,0,0,5.44,2.66c.83.26,1.68.4,2.51.63l.6.19c.3.12-.3-.27.17.1.14.11.25.19,0,0,.38.31,0-.16.12.23l-.34-1.26,0,.18.34-1.26-.07.16.9-.89-.2.09,1.26-.34a13.66,13.66,0,0,1-6.71-2.44l-2.52,4.32a35.73,35.73,0,0,0,8.25,2.57,2.57,2.57,0,0,0,3.08-1.74,2.53,2.53,0,0,0-1.75-3.08Z" transform="translate(-72.77 -197.38)"/><path d="M245.05,603.31c-5.07,2.27-10.78-.86-14.35-4.39-4.38-4.32-7.7-9.81-11.15-14.86Q208.18,567.41,198,550q-5.7-9.76-11-19.76c-1.51-2.84-5.83-.32-4.32,2.52q10,18.74,21.31,36.68,5.66,9,11.66,17.72c3.71,5.42,7.3,11.37,12.13,15.87,5.33,5,12.84,7.72,19.81,4.6a2.52,2.52,0,0,0,.9-3.42,2.57,2.57,0,0,0-3.42-.9Z" transform="translate(-72.77 -197.38)"/><path d="M83.14,425.64a33.23,33.23,0,0,1-5.22-7.16c-.14-.28-.18-.35-.11-.21-.09-.31-.11-.37-.07-.19s0,.2,0-.1.11-.32,0-.12A14.26,14.26,0,0,1,79,415.93a10.52,10.52,0,0,1,1.15-1.51,21.53,21.53,0,0,1,1.57-1.6,2.5,2.5,0,1,0-3.53-3.54,22.12,22.12,0,0,0-3.66,4.36c-1.15,1.78-2.18,3.8-1.49,6a19.18,19.18,0,0,0,2.83,4.95,42.13,42.13,0,0,0,3.79,4.62,2.5,2.5,0,0,0,3.53-3.53Z" transform="translate(-72.77 -197.38)"/><path d="M82.2,431.88a47.1,47.1,0,0,0-.87-7.29,22.61,22.61,0,0,1-.5-6.66c.52-3.82,3.76-5.92,7.43-6.08,4.84-.21,9.2,2.55,13.22,4.89L116,425.21c9.68,5.64,19.47,11.14,28.93,17.15,9.05,5.76,17.78,12,26.31,18.5,9.56,7.28,18.87,14.87,28.18,22.46a2.58,2.58,0,0,0,3.54,0,2.51,2.51,0,0,0,0-3.53c-17.52-14.28-35.09-28.61-54.12-40.86-9.89-6.36-20.17-12.12-30.32-18q-7.66-4.47-15.34-8.94c-4.48-2.61-9.4-5.27-14.75-5.11s-10.34,3-12.06,8.23c-1.81,5.51.75,11.24.82,16.81,0,3.21,5,3.22,5,0Z" transform="translate(-72.77 -197.38)"/><path d="M298.15,324.8c-2.07-2.11-3.74-4.57-6.12-6.37a15.53,15.53,0,0,0-7.8-2.87,29.83,29.83,0,0,0-8.27.51,16.65,16.65,0,0,0-8.32,3.49,8.9,8.9,0,0,0-3.12,7.36c.3,2.9,2.19,5.19,4.37,7,4.74,3.9,10.44,6.28,15.73,9.32a178.39,178.39,0,0,1,17.94,11.93,2.53,2.53,0,0,0,3.42-.9,2.56,2.56,0,0,0-.89-3.42q-6.76-5.07-13.95-9.54c-4.55-2.82-9.36-5.13-14-7.79a29.24,29.24,0,0,1-5.91-4.18c-1.34-1.31-2.31-2.87-1.34-4.7s3.28-2.79,5.33-3.3a28.44,28.44,0,0,1,6.81-.87,11.58,11.58,0,0,1,7,1.93c2.2,1.6,3.72,4,5.6,6,2.26,2.3,5.8-1.24,3.54-3.54Z" transform="translate(-72.77 -197.38)"/><path d="M290.79,347.23c1.54,1.19,1.19,3,.55,4.67-.27.69-.58,1.67-1.26,2-.85.46-2.33.29-3.26.36a76.34,76.34,0,0,1-14.81,0c-9.55-1.14-18.65-4.72-28.35-5-3.21-.08-3.21,4.92,0,5,8.52.21,16.63,3.12,25,4.49a65.18,65.18,0,0,0,13.38.74c2.25-.1,4.5-.26,6.74-.44s4.36-.68,5.79-2.65c2.57-3.54,3.72-9.77-.21-12.82a2.58,2.58,0,0,0-3.54,0,2.53,2.53,0,0,0,0,3.54Z" transform="translate(-72.77 -197.38)"/><path d="M276.23,354.2c-10-1.71-19.1-6.31-27.42-12a118.92,118.92,0,0,1-11.92-9.16,35.27,35.27,0,0,1-5.17-5.48c-1.51-2.08-2.74-4.35-4.14-6.5-3.07-4.7-6.68-9.23-8.47-14.61-1-3-5.84-1.74-4.82,1.33,1.72,5.15,4.78,9.56,7.79,14s5.58,9.29,9.54,13.15a107,107,0,0,0,12.73,10.21,97.16,97.16,0,0,0,13.52,8.17,63.32,63.32,0,0,0,17,5.67,2.58,2.58,0,0,0,3.08-1.74,2.53,2.53,0,0,0-1.75-3.08Z" transform="translate(-72.77 -197.38)"/><path d="M218.12,313.92c0-3.75-.2-7.5-.56-11.23a2.56,2.56,0,0,0-2.5-2.5,2.53,2.53,0,0,0-2.5,2.5c.36,3.73.55,7.48.56,11.23a2.5,2.5,0,0,0,5,0Z" transform="translate(-72.77 -197.38)"/><path d="M220.25,311a28.19,28.19,0,0,1-.71-7.15,6.64,6.64,0,0,1,.19-2.21,4.92,4.92,0,0,1,1.12-.73c.48-.29,1-.57,1.47-.83,4.1-2.13,8.48-2.39,13-2.59,10.19-.46,20.38-1,30.57-1.36,5-.2,10.22-.14,14.37,3.05a2.5,2.5,0,0,0,3.42-.9,2.57,2.57,0,0,0-.9-3.42c-4.19-3.22-9.66-3.88-14.79-3.8-5.61.09-11.24.47-16.85.72l-17,.77c-5.31.23-10.34,1-15,3.62a11.19,11.19,0,0,0-3.3,2.44,6.81,6.81,0,0,0-1.15,4,33.15,33.15,0,0,0,.83,9.68c.71,3.13,5.54,1.81,4.82-1.33Z" transform="translate(-72.77 -197.38)"/><path d="M398,467.69c3.56.2,7.05.89,10.57,1.38a87,87,0,0,0,10.82.81c7.28.11,14.56,0,21.83,0h33.39a107.89,107.89,0,0,0,10.79-.26c7.84-.8,14.63-4.41,21.34-8.3,2.79-1.61.27-5.93-2.52-4.31-5.64,3.26-11.46,6.65-18,7.52a79.34,79.34,0,0,1-10.57.35H464.91c-14.52,0-29,.08-43.55,0a87.62,87.62,0,0,1-11.45-.65c-4-.54-7.9-1.34-11.9-1.56-3.22-.17-3.21,4.83,0,5Z" transform="translate(-72.77 -197.38)"/><path d="M353.85,328.52c-5.78-.58-11.65-.89-17,1.66a2.51,2.51,0,0,0-.9,3.42,2.57,2.57,0,0,0,3.42.9,16.29,16.29,0,0,1,3.22-1l1.06-.19c.53-.09-.1,0,.4,0,.68-.06,1.35-.11,2-.13a59.93,59.93,0,0,1,7.81.42,2.5,2.5,0,0,0,2.5-2.5,2.56,2.56,0,0,0-2.5-2.5Z" transform="translate(-72.77 -197.38)"/><path d="M345.42,332.16a123.06,123.06,0,0,1,15.2,1.54,42.92,42.92,0,0,1,7.11,1.37,20.41,20.41,0,0,1,5.65,3.49,2.51,2.51,0,0,0,3.42-.9,2.58,2.58,0,0,0-.9-3.42,24.57,24.57,0,0,0-6.43-3.85,38.41,38.41,0,0,0-7.52-1.51,132.88,132.88,0,0,0-16.53-1.72c-3.22-.08-3.22,4.92,0,5Z" transform="translate(-72.77 -197.38)"/><path d="M263.87,294.64c1.81,1.93,4.51,2.31,7,2.7,2.79.44,5.6.76,8.42.93a2.52,2.52,0,0,0,2.5-2.5,2.55,2.55,0,0,0-2.5-2.5q-1.84-.12-3.69-.3c-1.34-.15-1.89-.22-3.14-.41-1.08-.17-2.18-.33-3.25-.59l-.61-.17c-.14,0-.88-.41-.38-.12l-.53-.3c-.23-.16-.22-.16,0,0l-.29-.29a2.53,2.53,0,0,0-3.54,0,2.56,2.56,0,0,0,0,3.54Z" transform="translate(-72.77 -197.38)"/><path d="M315.44,288.75c-.66,2.19-2.15,4-3.06,6.11a20.2,20.2,0,0,0-1.71,7.35c-.1,2.53.32,5.06,2.16,6.94,1.61,1.64,3.85,2.46,5.94,3.29a72.66,72.66,0,0,0,7.33,2.49,11.07,11.07,0,0,0,3.4.69,5.42,5.42,0,0,0,3.7-2.16,81.93,81.93,0,0,0,8.54-11.41,153.11,153.11,0,0,1,8.78-12.89,2.57,2.57,0,0,0,0-3.54,2.52,2.52,0,0,0-3.53,0c-5.24,6.51-9.12,13.94-14.17,20.57-.56.73-1.14,1.44-1.74,2.14-.32.38-.65.76-1,1.12s-1,.8-1.17,1.24l-.14.14c.67-.1.81-.18.41-.24a2.24,2.24,0,0,0-.64-.17L327,310c-1.13-.33-2.25-.68-3.36-1.06a40.24,40.24,0,0,1-5.72-2.26,3.48,3.48,0,0,1-2.24-3.59,14.48,14.48,0,0,1,1.3-6.28c1.07-2.28,2.57-4.27,3.3-6.71.92-3.09-3.9-4.41-4.82-1.33Z" transform="translate(-72.77 -197.38)"/><path d="M375.3,306.86c7.17,1.11,13.69,4.23,19.92,7.83a107.91,107.91,0,0,1,9.31,5.95,90,90,0,0,1,8.39,7.22c5.35,5,10.89,10.08,15.17,16.09,3.75,5.28,6.62,11.12,10.06,16.59a56.81,56.81,0,0,0,6.63,8.8c2.77,2.94,6.22,5.14,8.94,8.13,2.17,2.39,5.7-1.15,3.54-3.53-2.45-2.7-5.53-4.71-8.11-7.28a45.8,45.8,0,0,1-6-7.63c-3.6-5.54-6.49-11.5-10.25-16.94-4.26-6.16-9.63-11.35-15.05-16.47-2.84-2.7-5.69-5.39-8.78-7.79a91.67,91.67,0,0,0-9.35-6.31c-7.14-4.27-14.75-8.2-23.06-9.48a2.59,2.59,0,0,0-3.08,1.74,2.53,2.53,0,0,0,1.75,3.08Z" transform="translate(-72.77 -197.38)"/><path d="M440.1,363.52a103.69,103.69,0,0,0,10.56,13.93,38.76,38.76,0,0,0,14.93,9.84A179.53,179.53,0,0,0,484.9,393a49.47,49.47,0,0,0,10.41,1.46c3.53.08,7.06-.19,10.6-.32a44,44,0,0,1,10.44.57,20.82,20.82,0,0,1,4.56,1.43c1.77.81,3.38,1.85,5.2,2.54a2.5,2.5,0,1,0,1.33-4.82c-1.33-.5-2.52-1.33-3.8-1.95a26.41,26.41,0,0,0-4.69-1.73,39.35,39.35,0,0,0-9.37-1.09c-6.53-.07-13.14,1-19.63-.12s-12.95-3.24-19.26-5.21c-5.57-1.74-10.53-4.08-14.81-8.14-4.52-4.28-8-9.45-11.47-14.59-1.78-2.66-6.11-.16-4.31,2.52Z" transform="translate(-72.77 -197.38)"/><path d="M492.27,407.25c-14.86-3.23-30.15-4.82-44.56-9.88a70.16,70.16,0,0,1-18.63-9.64,65,65,0,0,1-13.41-13.9A137.32,137.32,0,0,1,404,354.13c-1.44-2.88-5.75-.35-4.32,2.52,6.16,12.34,13.53,24.64,24.35,33.46C435.59,399.5,450,404,464.29,407c8.86,1.83,17.81,3.17,26.65,5.09,3.14.68,4.48-4.13,1.33-4.82Z" transform="translate(-72.77 -197.38)"/><path d="M405.34,356.48c-2.17-4.69-6.25-7.94-9.88-11.45s-6.32-8.42-10.69-11.43-10-4.07-15.26-4.77c-6.06-.8-12.19-1.4-18.3-1.6-6.38-.21-13.35.77-17.85,5.77-2.15,2.38,1.37,5.93,3.53,3.53,3.4-3.76,8.56-4.4,13.37-4.32a167.37,167.37,0,0,1,17.48,1.4c4.54.55,9.33,1.24,13.34,3.57,4.24,2.46,6.52,7,9.88,10.43,3.56,3.62,7.88,6.67,10.06,11.39a2.5,2.5,0,0,0,4.32-2.52Z" transform="translate(-72.77 -197.38)"/><path d="M229,533.28a22.67,22.67,0,0,0-1.41,9.92,2.5,2.5,0,0,0,5,0,21.38,21.38,0,0,1-.07-2.4c0-.34,0-.69.06-1l.06-.68c0-.51-.08.54,0,0a22.31,22.31,0,0,1,1.18-4.47,2.48,2.48,0,0,0-.25-1.92,2.52,2.52,0,0,0-1.49-1.15,2.57,2.57,0,0,0-3.08,1.74Z" transform="translate(-72.77 -197.38)"/></svg>